<?xml version="1.0" encoding="UTF-8"?>
<svg xmlns="http://www.w3.org/2000/svg" xmlns:xlink="http://www.w3.org/1999/xlink" width="133px" height="80px" viewBox="0 0 133 80" version="1.1">
<g id="surface1">
<path style=" stroke:none;fill-rule:nonzero;fill:rgb(25.098041%,75.294119%,90.588236%);fill-opacity:1;" d="M 118.773438 73.238281 L 84.308594 43.0625 L 118.597656 12.425781 C 119.097656 11.96875 119.160156 11.386719 118.722656 10.90625 C 118.296875 10.425781 117.46875 10.125 116.5625 10.125 L 87.625 10.125 C 86.8125 10.125 86.054688 10.363281 85.597656 10.769531 L 66.5 27.480469 L 47.402344 10.761719 C 46.945312 10.359375 46.1875 10.121094 45.375 10.117188 L 16.449219 10.117188 C 15.542969 10.117188 14.703125 10.417969 14.289062 10.898438 C 13.851562 11.382812 13.914062 11.96875 14.410156 12.417969 L 48.691406 43.0625 L 14.226562 73.238281 C 13.714844 73.6875 13.652344 74.273438 14.078125 74.761719 C 14.503906 75.242188 15.347656 75.550781 16.25 75.550781 L 46.652344 75.550781 C 47.476562 75.550781 48.234375 75.304688 48.691406 74.898438 L 66.5 58.976562 L 84.320312 74.898438 C 84.777344 75.304688 85.535156 75.550781 86.355469 75.550781 L 116.75 75.550781 C 117.664062 75.550781 118.496094 75.242188 118.929688 74.761719 C 119.347656 74.273438 119.292969 73.6875 118.773438 73.238281 Z M 118.773438 73.238281 "/>
</g>
</svg>
