<svg width="1000" height="1000" version="1.1" xmlns="http://www.w3.org/2000/svg" desc="Created with imagetracer.js version 1.2.6" ><path fill="rgb(58,58,58)" stroke="rgb(58,58,58)" stroke-width="1" opacity="1" d="M 354 66 L 358 66.5 L 358 242.5 L 359 243.5 L 359 283 L 647.5 283 L 650 282 L 650 66.5 L 654 66 L 654 242.5 L 655 243.5 L 655 282 L 894.5 282 L 895 286 L 655 287 L 655 605 L 894.5 605 L 895 609 L 655 610 L 655 677.5 L 656 678.5 L 656 934 L 652 933.5 L 652 785.5 L 652 783.5 L 652 760.5 L 651 759.5 L 651 610 L 360.5 610 L 359 611.5 L 359 677.5 L 360 678.5 L 360 934 L 356 933.5 L 356 785.5 L 356 783.5 L 356 760.5 L 355 759.5 L 354.5 610 L 352.5 610 L 347.5 611 L 105 611 L 105.5 607 L 255.5 607 L 256.5 606 L 355 606 L 355 326.5 L 354 325.5 L 354 287 L 347.5 288 L 105 288 L 105.5 284 L 255.5 284 L 256.5 283 L 354 283 L 354 66 Z M 359 287 L 359 606 L 649 606 L 651 606 L 651 327 L 650 326 L 650 288 L 650 287 L 359 287 Z " /><path fill="rgb(254,254,254)" stroke="rgb(254,254,254)" stroke-width="1" opacity="1" d="M 352.5 66 L 354 68.5 L 353 68.5 L 352.5 66 Z " /><path fill="rgb(254,254,254)" stroke="rgb(254,254,254)" stroke-width="1" opacity="1" d="M 359.5 66 L 359 67.5 L 358.5 69 L 358 67.5 L 359.5 66 Z " /><path fill="rgb(254,254,254)" stroke="rgb(254,254,254)" stroke-width="1" opacity="1" d="M 648.5 66 L 650 68.5 L 649 68.5 L 648.5 66 Z " /><path fill="rgb(254,254,254)" stroke="rgb(254,254,254)" stroke-width="1" opacity="1" d="M 655.5 66 L 655 67.5 L 654.5 69 L 654 67.5 L 655.5 66 Z " /><path fill="rgb(254,254,254)" stroke="rgb(254,254,254)" stroke-width="1" opacity="1" d="M 352.5 80 L 354 85.5 L 352.5 88 L 352 86.5 L 353 84.5 L 352.5 80 Z " /><path fill="rgb(254,254,254)" stroke="rgb(254,254,254)" stroke-width="1" opacity="1" d="M 358.5 80 L 359 103.5 L 360 106.5 L 359 108.5 L 360 110.5 L 360 112.5 L 359 134.5 L 359 136.5 L 359 159.5 L 360 160.5 L 359 162.5 L 360 164.5 L 359 166.5 L 359 168.5 L 359 185.5 L 360 186.5 L 359 187.5 L 359 216.5 L 360 219.5 L 360 221.5 L 359 223.5 L 359 239.5 L 360 241.5 L 358 242.5 L 358.5 80 Z " /><path fill="rgb(254,254,254)" stroke="rgb(254,254,254)" stroke-width="1" opacity="1" d="M 648.5 80 L 650 85.5 L 648.5 88 L 648 86.5 L 649 84.5 L 648.5 80 Z " /><path fill="rgb(254,254,254)" stroke="rgb(254,254,254)" stroke-width="1" opacity="1" d="M 654.5 80 L 655 103.5 L 656 106.5 L 655 108.5 L 656 110.5 L 656 112.5 L 655 134.5 L 655 136.5 L 655 159.5 L 656 160.5 L 655 162.5 L 656 164.5 L 655 166.5 L 655 168.5 L 655 185.5 L 656 186.5 L 655 187.5 L 655 216.5 L 656 219.5 L 656 221.5 L 655 223.5 L 655 239.5 L 656 241.5 L 654 242.5 L 654.5 80 Z " /><path fill="rgb(254,254,254)" stroke="rgb(254,254,254)" stroke-width="1" opacity="1" d="M 353.5 106 L 354 109 Q 351.3 110.1 352 107.5 L 353.5 106 Z " /><path fill="rgb(254,254,254)" stroke="rgb(254,254,254)" stroke-width="1" opacity="1" d="M 649.5 106 L 650 109 Q 647.3 110.1 648 107.5 L 649.5 106 Z " /><path fill="rgb(254,254,254)" stroke="rgb(254,254,254)" stroke-width="1" opacity="1" d="M 352.5 132 L 353 134.5 L 352 134.5 L 352.5 132 Z " /><path fill="rgb(254,254,254)" stroke="rgb(254,254,254)" stroke-width="1" opacity="1" d="M 648.5 132 L 649 134.5 L 648 134.5 L 648.5 132 Z " /><path fill="rgb(254,254,254)" stroke="rgb(254,254,254)" stroke-width="1" opacity="1" d="M 352.5 136 L 353 159.5 L 352 159.5 L 352.5 136 Z " /><path fill="rgb(254,254,254)" stroke="rgb(254,254,254)" stroke-width="1" opacity="1" d="M 648.5 136 L 649 159.5 L 648 159.5 L 648.5 136 Z " /><path fill="rgb(254,254,254)" stroke="rgb(254,254,254)" stroke-width="1" opacity="1" d="M 352.5 161 Q 355.5 160.1 354 164.5 L 353 167.5 L 354 168.5 L 354 185.5 L 353 185.5 L 353 168.5 L 352 165.5 L 353 162.5 L 352.5 161 Z " /><path fill="rgb(254,254,254)" stroke="rgb(254,254,254)" stroke-width="1" opacity="1" d="M 648.5 161 Q 651.5 160.1 650 164.5 L 649 167.5 L 650 168.5 L 650 185.5 L 649 185.5 L 649 168.5 L 648 165.5 L 649 162.5 L 648.5 161 Z " /><path fill="rgb(254,254,254)" stroke="rgb(254,254,254)" stroke-width="1" opacity="1" d="M 352.5 187 L 353 189.5 L 352 189.5 L 352.5 187 Z " /><path fill="rgb(254,254,254)" stroke="rgb(254,254,254)" stroke-width="1" opacity="1" d="M 648.5 187 L 649 189.5 L 648 189.5 L 648.5 187 Z " /><path fill="rgb(254,254,254)" stroke="rgb(254,254,254)" stroke-width="1" opacity="1" d="M 352.5 191 L 354 192.5 L 354 217.5 L 352 216.5 L 353 215.5 L 353 192.5 L 352.5 191 Z " /><path fill="rgb(254,254,254)" stroke="rgb(254,254,254)" stroke-width="1" opacity="1" d="M 648.5 191 L 650 192.5 L 650 217.5 L 648 216.5 L 649 215.5 L 649 192.5 L 648.5 191 Z " /><path fill="rgb(254,254,254)" stroke="rgb(254,254,254)" stroke-width="1" opacity="1" d="M 353.5 242 L 354 245 Q 351.3 246.1 352 243.5 L 353.5 242 Z " /><path fill="rgb(254,254,254)" stroke="rgb(254,254,254)" stroke-width="1" opacity="1" d="M 649.5 242 L 650 245 Q 647.3 246.1 648 243.5 L 649.5 242 Z " /><path fill="rgb(254,254,254)" stroke="rgb(254,254,254)" stroke-width="1" opacity="1" d="M 352.5 268 Q 355.5 269.5 352.5 271 L 352.5 268 Z " /><path fill="rgb(254,254,254)" stroke="rgb(254,254,254)" stroke-width="1" opacity="1" d="M 648.5 268 Q 651.5 269.5 648.5 271 L 648.5 268 Z " /><path fill="rgb(254,254,254)" stroke="rgb(254,254,254)" stroke-width="1" opacity="1" d="M 352.5 272 L 353 280.5 L 354 281.5 L 352.5 283 L 336.5 283 Q 334.7 280.3 328.5 282 Q 326.8 284.7 320.5 283 Q 318.7 280.3 312.5 282 Q 311 284.5 305.5 283 L 305.5 282 L 319.5 281 Q 321.3 283.7 327.5 282 Q 329.3 279.3 335.5 281 L 336.5 282 L 352 282 L 352.5 272 Z " /><path fill="rgb(254,254,254)" stroke="rgb(254,254,254)" stroke-width="1" opacity="1" d="M 648.5 272 L 649 280.5 L 648 280.5 L 648.5 272 Z " /><path fill="rgb(254,254,254)" stroke="rgb(254,254,254)" stroke-width="1" opacity="1" d="M 109.5 280 L 112.5 281 L 120 281.5 L 112.5 282 L 111 281.5 L 111.5 283 L 120.5 283 Q 122 280.5 127.5 282 L 130.5 283 L 135.5 282 L 140.5 283 L 143.5 282 L 145.5 283 L 160.5 280 L 159.5 282 L 152 282.5 L 164.5 283 L 167.5 282 L 170.5 283 L 175.5 282 L 180.5 283 L 183.5 282 L 188.5 283 L 191.5 282 L 196.5 283 L 199.5 282 L 204.5 283 L 205.5 282 L 215.5 282 L 220.5 283 L 223.5 282 L 228.5 283 L 228.5 282 L 226 281.5 L 232 281 L 232.5 283 L 245.5 283 L 245.5 282 L 243 281.5 L 247.5 281 Q 249.2 283.7 255.5 282 Q 257.3 279.3 263.5 281 Q 265.2 283.7 271.5 282 L 272.5 281 L 303.5 281 L 303.5 282 L 272.5 282 Q 270.8 284.7 264.5 283 L 263.5 282 L 256 282 L 255.5 284 L 111.5 284 L 107.5 284 L 104 283.5 L 108.5 282 L 110 282.5 L 109.5 280 Z " /><path fill="rgb(254,254,254)" stroke="rgb(254,254,254)" stroke-width="1" opacity="1" d="M 208.5 280 L 216 280.5 L 208.5 281 L 208.5 280 Z " /><path fill="rgb(254,254,254)" stroke="rgb(254,254,254)" stroke-width="1" opacity="1" d="M 448.5 280 L 450 280.5 L 448 281 Q 449.3 284 445.5 283 L 441 281.5 L 448.5 280 Z " /><path fill="rgb(254,254,254)" stroke="rgb(254,254,254)" stroke-width="1" opacity="1" d="M 456.5 280 L 460 280.5 L 456.5 281 L 456.5 280 Z " /><path fill="rgb(254,254,254)" stroke="rgb(254,254,254)" stroke-width="1" opacity="1" d="M 480.5 280 L 483 280.5 L 480.5 281 L 480.5 280 Z " /><path fill="rgb(254,254,254)" stroke="rgb(254,254,254)" stroke-width="1" opacity="1" d="M 502.5 280 L 508 280.5 L 502.5 281 L 502.5 280 Z " /><path fill="rgb(254,254,254)" stroke="rgb(254,254,254)" stroke-width="1" opacity="1" d="M 512.5 280 L 515 280.5 L 512.5 281 L 512.5 280 Z " /><path fill="rgb(254,254,254)" stroke="rgb(254,254,254)" stroke-width="1" opacity="1" d="M 528.5 280 L 532 280.5 L 528 281.5 L 578.5 282 L 586.5 280 L 586.5 281 L 584 281.5 L 611.5 282 L 619.5 280 L 619.5 281 L 616 281.5 L 631.5 282 L 632.5 281 L 644.5 280 L 644.5 281 L 640 281.5 L 648 282.5 L 494.5 283 L 494.5 282 L 519.5 282 L 528.5 280 Z " /><path fill="rgb(254,254,254)" stroke="rgb(254,254,254)" stroke-width="1" opacity="1" d="M 544.5 280 L 549 280.5 L 544.5 281 L 544.5 280 Z " /><path fill="rgb(254,254,254)" stroke="rgb(254,254,254)" stroke-width="1" opacity="1" d="M 552.5 280 L 555 280.5 L 552.5 281 L 552.5 280 Z " /><path fill="rgb(254,254,254)" stroke="rgb(254,254,254)" stroke-width="1" opacity="1" d="M 568.5 280 L 572 280.5 L 568.5 281 L 568.5 280 Z " /><path fill="rgb(254,254,254)" stroke="rgb(254,254,254)" stroke-width="1" opacity="1" d="M 592.5 280 L 596 280.5 L 592.5 281 L 592.5 280 Z " /><path fill="rgb(254,254,254)" stroke="rgb(254,254,254)" stroke-width="1" opacity="1" d="M 600.5 280 L 605 280.5 L 600.5 281 L 600.5 280 Z " /><path fill="rgb(254,254,254)" stroke="rgb(254,254,254)" stroke-width="1" opacity="1" d="M 608.5 280 L 611 280.5 L 608.5 281 L 608.5 280 Z " /><path fill="rgb(254,254,254)" stroke="rgb(254,254,254)" stroke-width="1" opacity="1" d="M 624.5 280 L 627 280.5 L 624.5 281 L 624.5 280 Z " /><path fill="rgb(254,254,254)" stroke="rgb(254,254,254)" stroke-width="1" opacity="1" d="M 655.5 280 L 659 280.5 L 655.5 281 L 655.5 280 Z " /><path fill="rgb(254,254,254)" stroke="rgb(254,254,254)" stroke-width="1" opacity="1" d="M 664.5 280 L 668 280.5 L 660.5 282 L 660.5 281 L 664.5 280 Z " /><path fill="rgb(254,254,254)" stroke="rgb(254,254,254)" stroke-width="1" opacity="1" d="M 672.5 280 L 675 280.5 L 672.5 281 L 672.5 280 Z " /><path fill="rgb(254,254,254)" stroke="rgb(254,254,254)" stroke-width="1" opacity="1" d="M 696.5 280 L 699 280.5 L 692.5 282 L 692.5 281 L 696.5 280 Z " /><path fill="rgb(254,254,254)" stroke="rgb(254,254,254)" stroke-width="1" opacity="1" d="M 704.5 280 L 708 280.5 L 704.5 281 L 704.5 280 Z " /><path fill="rgb(254,254,254)" stroke="rgb(254,254,254)" stroke-width="1" opacity="1" d="M 712.5 280 L 716 280.5 L 712.5 281 L 712.5 280 Z " /><path fill="rgb(254,254,254)" stroke="rgb(254,254,254)" stroke-width="1" opacity="1" d="M 720.5 280 L 724 280.5 L 720.5 281 L 720.5 280 Z " /><path fill="rgb(254,254,254)" stroke="rgb(254,254,254)" stroke-width="1" opacity="1" d="M 728.5 280 L 733 280.5 L 728.5 281 L 728.5 280 Z " /><path fill="rgb(254,254,254)" stroke="rgb(254,254,254)" stroke-width="1" opacity="1" d="M 736.5 280 L 738.5 281 L 751.5 281 L 755.5 280 L 755.5 281 Q 748.8 283.3 738.5 282 L 736.5 280 Z " /><path fill="rgb(254,254,254)" stroke="rgb(254,254,254)" stroke-width="1" opacity="1" d="M 760.5 280 L 763 280.5 L 760.5 281 L 760.5 280 Z " /><path fill="rgb(254,254,254)" stroke="rgb(254,254,254)" stroke-width="1" opacity="1" d="M 768.5 280 L 772 280.5 L 768.5 281 L 768.5 280 Z " /><path fill="rgb(254,254,254)" stroke="rgb(254,254,254)" stroke-width="1" opacity="1" d="M 776.5 280 L 781 280.5 L 776.5 281 L 776.5 280 Z " /><path fill="rgb(254,254,254)" stroke="rgb(254,254,254)" stroke-width="1" opacity="1" d="M 784.5 280 L 788 280.5 L 784.5 281 L 784.5 280 Z " /><path fill="rgb(254,254,254)" stroke="rgb(254,254,254)" stroke-width="1" opacity="1" d="M 800.5 280 L 802 280.5 Q 799.3 283.3 792.5 282 L 792.5 281 Q 798.8 282.8 800.5 280 Z " /><path fill="rgb(254,254,254)" stroke="rgb(254,254,254)" stroke-width="1" opacity="1" d="M 808.5 280 L 811 280.5 L 808.5 281 L 808.5 280 Z " /><path fill="rgb(254,254,254)" stroke="rgb(254,254,254)" stroke-width="1" opacity="1" d="M 824.5 280 L 829 280.5 L 824.5 281 L 824.5 280 Z " /><path fill="rgb(254,254,254)" stroke="rgb(254,254,254)" stroke-width="1" opacity="1" d="M 832.5 280 L 836 280.5 L 832.5 281 L 832.5 280 Z " /><path fill="rgb(254,254,254)" stroke="rgb(254,254,254)" stroke-width="1" opacity="1" d="M 848.5 280 L 850 280.5 L 846.5 282 L 846.5 281 L 848.5 280 Z " /><path fill="rgb(254,254,254)" stroke="rgb(254,254,254)" stroke-width="1" opacity="1" d="M 856.5 280 L 864 281.5 L 856 282 L 856.5 280 Z " /><path fill="rgb(254,254,254)" stroke="rgb(254,254,254)" stroke-width="1" opacity="1" d="M 872.5 280 L 876 280.5 L 870.5 282 L 870.5 281 L 872.5 280 Z " /><path fill="rgb(254,254,254)" stroke="rgb(254,254,254)" stroke-width="1" opacity="1" d="M 880.5 280 L 885 280.5 L 880.5 281 L 880.5 280 Z " /><path fill="rgb(254,254,254)" stroke="rgb(254,254,254)" stroke-width="1" opacity="1" d="M 888.5 280 L 890.5 280 L 894 281.5 L 892.5 281 L 889.5 282 L 888.5 280 Z " /><path fill="rgb(254,254,254)" stroke="rgb(254,254,254)" stroke-width="1" opacity="1" d="M 368.5 281 L 376 281.5 L 361.5 283 L 361.5 282 Q 367 283.5 368.5 281 Z " /><path fill="rgb(254,254,254)" stroke="rgb(254,254,254)" stroke-width="1" opacity="1" d="M 405.5 281 Q 409.3 280 408 283 L 404 282.5 L 405.5 281 Z " /><path fill="rgb(254,254,254)" stroke="rgb(254,254,254)" stroke-width="1" opacity="1" d="M 422.5 281 L 439.5 281 L 440 283 L 432.5 282 L 429.5 283 L 424.5 282 L 421.5 283 L 422.5 281 Z " /><path fill="rgb(254,254,254)" stroke="rgb(254,254,254)" stroke-width="1" opacity="1" d="M 683.5 281 L 688 281.5 L 683.5 282 L 683.5 281 Z " /><path fill="rgb(254,254,254)" stroke="rgb(254,254,254)" stroke-width="1" opacity="1" d="M 380.5 282 L 384 282.5 L 380.5 283 L 380.5 282 Z " /><path fill="rgb(254,254,254)" stroke="rgb(254,254,254)" stroke-width="1" opacity="1" d="M 386.5 282 L 392 282.5 L 386.5 283 L 386.5 282 Z " /><path fill="rgb(254,254,254)" stroke="rgb(254,254,254)" stroke-width="1" opacity="1" d="M 395.5 282 L 400 282.5 L 395.5 283 L 395.5 282 Z " /><path fill="rgb(254,254,254)" stroke="rgb(254,254,254)" stroke-width="1" opacity="1" d="M 412.5 282 L 416 282.5 L 412.5 283 L 412.5 282 Z " /><path fill="rgb(254,254,254)" stroke="rgb(254,254,254)" stroke-width="1" opacity="1" d="M 480.5 282 L 488 282.5 L 480.5 283 L 480.5 282 Z " /><path fill="rgb(254,254,254)" stroke="rgb(254,254,254)" stroke-width="1" opacity="1" d="M 744 286 L 894 286.5 L 890.5 288 L 887.5 287 L 880.5 288 L 879.5 287 L 866.5 287 L 864.5 288 L 860.5 287 L 859.5 288 L 848.5 288 Q 847.3 285.8 842.5 287 L 840.5 288 L 835.5 287 L 832.5 288 L 828.5 287 L 824.5 288 L 823.5 287 L 810.5 287 L 808.5 288 L 806.5 288 L 796.5 287 L 792.5 288 L 787.5 287 L 784.5 288 L 780.5 287 L 776.5 288 Q 775.3 285.8 770.5 287 L 768.5 288 Q 767.2 285.8 762.5 287 L 760.5 288 L 756.5 287 L 752.5 288 L 748.5 287 L 744 288 L 744 286 Z " /><path fill="rgb(254,254,254)" stroke="rgb(254,254,254)" stroke-width="1" opacity="1" d="M 348.5 287 L 354 287.5 L 352.5 296 L 352 288 Q 347.6 289 348.5 287 Z " /><path fill="rgb(254,254,254)" stroke="rgb(254,254,254)" stroke-width="1" opacity="1" d="M 359.5 287 L 501 287.5 L 359.5 288 L 359.5 287 Z " /><path fill="rgb(254,254,254)" stroke="rgb(254,254,254)" stroke-width="1" opacity="1" d="M 504.5 287 L 508 287.5 L 504.5 288 L 504.5 287 Z " /><path fill="rgb(254,254,254)" stroke="rgb(254,254,254)" stroke-width="1" opacity="1" d="M 512.5 287 L 515 287.5 L 512.5 288 L 512.5 287 Z " /><path fill="rgb(254,254,254)" stroke="rgb(254,254,254)" stroke-width="1" opacity="1" d="M 520.5 287 L 524 287.5 L 520.5 288 L 520.5 287 Z " /><path fill="rgb(254,254,254)" stroke="rgb(254,254,254)" stroke-width="1" opacity="1" d="M 544.5 287 L 549 287.5 L 544.5 288 L 544.5 287 Z " /><path fill="rgb(254,254,254)" stroke="rgb(254,254,254)" stroke-width="1" opacity="1" d="M 552.5 287 L 556 287.5 L 552.5 288 L 552.5 287 Z " /><path fill="rgb(254,254,254)" stroke="rgb(254,254,254)" stroke-width="1" opacity="1" d="M 560.5 287 L 563 287.5 L 560.5 288 L 560.5 287 Z " /><path fill="rgb(254,254,254)" stroke="rgb(254,254,254)" stroke-width="1" opacity="1" d="M 568.5 287 L 571 287.5 L 568.5 288 L 568.5 287 Z " /><path fill="rgb(254,254,254)" stroke="rgb(254,254,254)" stroke-width="1" opacity="1" d="M 576.5 287 L 582 287.5 L 576.5 288 L 576.5 287 Z " /><path fill="rgb(254,254,254)" stroke="rgb(254,254,254)" stroke-width="1" opacity="1" d="M 600.5 287 L 603 287.5 L 600.5 288 L 600.5 287 Z " /><path fill="rgb(254,254,254)" stroke="rgb(254,254,254)" stroke-width="1" opacity="1" d="M 608.5 287 L 611 287.5 L 608.5 288 L 608.5 287 Z " /><path fill="rgb(254,254,254)" stroke="rgb(254,254,254)" stroke-width="1" opacity="1" d="M 616.5 287 L 620 287.5 L 616.5 288 L 616.5 287 Z " /><path fill="rgb(254,254,254)" stroke="rgb(254,254,254)" stroke-width="1" opacity="1" d="M 624.5 287 L 627 287.5 L 624.5 288 L 624.5 287 Z " /><path fill="rgb(254,254,254)" stroke="rgb(254,254,254)" stroke-width="1" opacity="1" d="M 632.5 287 L 636 287.5 L 632.5 288 L 632.5 287 Z " /><path fill="rgb(254,254,254)" stroke="rgb(254,254,254)" stroke-width="1" opacity="1" d="M 640.5 287 L 643 287.5 L 640.5 288 L 640.5 287 Z " /><path fill="rgb(254,254,254)" stroke="rgb(254,254,254)" stroke-width="1" opacity="1" d="M 649.5 287 L 649 288.5 L 648.5 296 L 648 288.5 L 649.5 287 Z " /><path fill="rgb(254,254,254)" stroke="rgb(254,254,254)" stroke-width="1" opacity="1" d="M 656.5 287 L 659 287.5 L 656.5 288 L 656.5 287 Z " /><path fill="rgb(254,254,254)" stroke="rgb(254,254,254)" stroke-width="1" opacity="1" d="M 664.5 287 L 668 287.5 L 664.5 288 L 664.5 287 Z " /><path fill="rgb(254,254,254)" stroke="rgb(254,254,254)" stroke-width="1" opacity="1" d="M 672.5 287 L 675 287.5 L 672.5 288 L 672.5 287 Z " /><path fill="rgb(254,254,254)" stroke="rgb(254,254,254)" stroke-width="1" opacity="1" d="M 688.5 287 L 693 287.5 L 688.5 288 L 688.5 287 Z " /><path fill="rgb(254,254,254)" stroke="rgb(254,254,254)" stroke-width="1" opacity="1" d="M 704.5 287 L 707 287.5 L 704.5 288 L 704.5 287 Z " /><path fill="rgb(254,254,254)" stroke="rgb(254,254,254)" stroke-width="1" opacity="1" d="M 712.5 287 L 716 287.5 L 712.5 288 L 712.5 287 Z " /><path fill="rgb(254,254,254)" stroke="rgb(254,254,254)" stroke-width="1" opacity="1" d="M 728.5 287 L 732 287.5 L 728.5 288 L 728.5 287 Z " /><path fill="rgb(254,254,254)" stroke="rgb(254,254,254)" stroke-width="1" opacity="1" d="M 736.5 287 L 741 287.5 L 736.5 288 L 736.5 287 Z " /><path fill="rgb(254,254,254)" stroke="rgb(254,254,254)" stroke-width="1" opacity="1" d="M 352.5 297 Q 355.1 296.2 354 299.5 L 353 299.5 L 352.5 297 Z " /><path fill="rgb(254,254,254)" stroke="rgb(254,254,254)" stroke-width="1" opacity="1" d="M 648.5 297 Q 651.1 296.2 650 299.5 L 649 299.5 L 648.5 297 Z " /><path fill="rgb(254,254,254)" stroke="rgb(254,254,254)" stroke-width="1" opacity="1" d="M 352.5 301 L 353 303.5 L 352 303.5 L 352.5 301 Z " /><path fill="rgb(254,254,254)" stroke="rgb(254,254,254)" stroke-width="1" opacity="1" d="M 648.5 301 L 649 303.5 L 648 303.5 L 648.5 301 Z " /><path fill="rgb(254,254,254)" stroke="rgb(254,254,254)" stroke-width="1" opacity="1" d="M 359.5 303 L 360 319.5 L 359 319.5 L 359.5 303 Z " /><path fill="rgb(254,254,254)" stroke="rgb(254,254,254)" stroke-width="1" opacity="1" d="M 655.5 303 L 656 319.5 L 655 319.5 L 655.5 303 Z " /><path fill="rgb(254,254,254)" stroke="rgb(254,254,254)" stroke-width="1" opacity="1" d="M 354.5 326 L 355 495.5 L 354 496.5 L 353.5 517 L 353 496.5 L 354 495.5 L 354 489 L 352 488.5 L 353 487.5 L 353 464.5 L 354 459.5 L 353 459.5 L 352.5 462 L 352 459.5 L 353 456.5 L 352 455.5 L 352 439.5 L 353 439.5 L 353.5 456 L 354 438.5 Q 351.4 437.1 352 432.5 L 353 432.5 L 353.5 435 L 354 408.5 L 353 405.5 L 354 402.5 L 353 402.5 L 352.5 404 L 352 401.5 L 354 399.5 L 354 379 Q 351.3 380.1 352 377.5 L 354 377.5 L 353 375.5 L 353 360.5 L 352 359.5 L 354 354.5 Q 350.5 353 353 351.5 L 353 328.5 L 354.5 326 Z " /><path fill="rgb(254,254,254)" stroke="rgb(254,254,254)" stroke-width="1" opacity="1" d="M 650.5 326 L 651 495.5 L 650 496.5 L 649.5 517 L 649 496.5 L 650 495.5 L 650 489 L 648 488.5 L 649 487.5 L 649 464.5 L 650 459.5 L 649 459.5 L 648.5 462 L 648 459.5 L 649 456.5 L 648 455.5 L 648 439.5 L 649 439.5 L 649.5 456 L 650 438.5 Q 647.4 437.1 648 432.5 L 649 432.5 L 649.5 435 L 650 408.5 L 649 405.5 L 650 402.5 L 649 402.5 L 648.5 404 L 648 401.5 L 650 399.5 L 650 379 Q 647.3 380.1 648 377.5 L 650 377.5 L 649 375.5 L 649 360.5 L 648 359.5 L 650 354.5 Q 646.5 353 649 351.5 L 649 328.5 L 650.5 326 Z " /><path fill="rgb(254,254,254)" stroke="rgb(254,254,254)" stroke-width="1" opacity="1" d="M 359.5 360 L 360 376.5 L 359 376.5 L 359.5 360 Z " /><path fill="rgb(254,254,254)" stroke="rgb(254,254,254)" stroke-width="1" opacity="1" d="M 655.5 360 L 656 376.5 L 655 376.5 L 655.5 360 Z " /><path fill="rgb(254,254,254)" stroke="rgb(254,254,254)" stroke-width="1" opacity="1" d="M 352.5 381 L 353 383.5 L 352 383.5 L 352.5 381 Z " /><path fill="rgb(254,254,254)" stroke="rgb(254,254,254)" stroke-width="1" opacity="1" d="M 648.5 381 L 649 383.5 L 648 383.5 L 648.5 381 Z " /><path fill="rgb(254,254,254)" stroke="rgb(254,254,254)" stroke-width="1" opacity="1" d="M 359.5 514 L 360 603 L 376 604.5 L 363.5 606 L 363.5 605 L 368 604.5 L 360 604 L 359.5 606 L 359.5 514 Z " /><path fill="rgb(254,254,254)" stroke="rgb(254,254,254)" stroke-width="1" opacity="1" d="M 655.5 514 L 656 602 L 660 602.5 L 656 603.5 L 664 604 Q 662.8 601 666.5 602 L 672 603 Q 673.3 600 669.5 601 L 669.5 600 L 676 601.5 L 672 603 L 671.5 605 Q 670 602.5 664.5 604 L 663.5 605 L 655 605 L 655.5 514 Z " /><path fill="rgb(254,254,254)" stroke="rgb(254,254,254)" stroke-width="1" opacity="1" d="M 354.5 539 L 355 540.5 L 354 543.5 L 355 544.5 L 355 569.5 L 354 569.5 L 354 544.5 L 353 541.5 L 354.5 539 Z " /><path fill="rgb(254,254,254)" stroke="rgb(254,254,254)" stroke-width="1" opacity="1" d="M 650.5 539 L 651 540.5 L 650 543.5 L 651 544.5 L 651 569.5 L 650 569.5 L 650 544.5 L 649 541.5 L 650.5 539 Z " /><path fill="rgb(254,254,254)" stroke="rgb(254,254,254)" stroke-width="1" opacity="1" d="M 352.5 568 L 354 574.5 L 353 574.5 L 352.5 568 Z " /><path fill="rgb(254,254,254)" stroke="rgb(254,254,254)" stroke-width="1" opacity="1" d="M 648.5 568 L 650 574.5 L 649 574.5 L 648.5 568 Z " /><path fill="rgb(254,254,254)" stroke="rgb(254,254,254)" stroke-width="1" opacity="1" d="M 352.5 576 L 353.5 592 L 354.5 576 L 355 591.5 L 354 594.5 L 355 599.5 L 354 599.5 L 352 591.5 L 352.5 576 Z " /><path fill="rgb(254,254,254)" stroke="rgb(254,254,254)" stroke-width="1" opacity="1" d="M 648.5 576 L 649.5 592 L 650.5 576 L 651 591.5 L 650 594.5 Q 652.2 595.8 651 600.5 L 649 603.5 L 651 603.5 L 650.5 606 L 648.5 606 L 494.5 606 L 493 604.5 L 496 604 L 495.5 602 L 488.5 602 L 487.5 603 L 472 604 Q 473.3 607.3 468.5 606 L 468.5 605 L 470 604.5 L 467 603.5 L 480 602.5 L 472 601.5 L 479.5 601 Q 481.3 603.8 487.5 602 Q 489.3 599.3 495.5 601 Q 498.5 603.8 504 603 Q 505.4 599.3 499.5 601 L 499.5 600 L 510 601.5 Q 504.8 604.8 496 604.5 L 507.5 605 Q 510.4 602.4 516.5 603 L 516.5 604 L 512 604.5 L 525.5 605 Q 528.6 601.6 536 602.5 L 524 600.5 L 527.5 600 Q 529.2 602.8 535.5 601 L 538 602.5 L 536 603 Q 534.6 607 541.5 605 L 543.5 604 L 546.5 605 L 552 603.5 L 544 602.5 L 552 601.5 L 549 600.5 L 551.5 600 L 555 601.5 L 552 602.5 L 559.5 603 L 564.5 602 L 564.5 603 Q 558.6 601.3 560 605 L 567.5 604 L 568.5 605 L 580.5 605 Q 584.4 601.9 592 602.5 L 580 600.5 L 583.5 600 Q 584.8 602.3 589.5 601 L 592 600 Q 590.6 603.7 596.5 602 L 596.5 603 L 584 604.5 L 601.5 605 L 608 604 L 608.5 602 Q 610 604.5 615.5 603 L 620.5 602 L 620.5 603 L 608 604.5 L 619.5 605 Q 624.1 602.1 632 602.5 L 624 601.5 L 631.5 601 L 636 602.5 L 624 604.5 L 636.5 605 Q 639.8 601.8 647.5 603 L 649 601.5 L 644 600.5 L 648.5 600 L 650 600.5 Q 650.6 594.4 648 591.5 L 648.5 576 Z M 529 604 L 529 605 L 535 605 L 529 604 Z M 553 604 L 553 605 L 557 605 L 553 604 Z M 641 604 L 641 605 L 649 605 L 641 604 Z " /><path fill="rgb(254,254,254)" stroke="rgb(254,254,254)" stroke-width="1" opacity="1" d="M 107.5 600 L 109.5 602 L 112 600.5 L 112 602.5 L 111 604.5 L 119.5 605 L 120.5 606 L 136.5 606 L 144 604.5 L 141 603.5 L 143.5 603 L 152 604.5 L 144 605.5 L 161.5 606 Q 162.8 603.8 167.5 605 L 170.5 606 L 175.5 605 L 176.5 606 L 187.5 606 L 191.5 605 L 194.5 606 Q 199.1 603.1 207.5 604 L 207.5 605 L 200 605.5 L 212.5 606 L 215.5 605 L 220.5 606 L 223.5 605 Q 224.8 607.2 229.5 606 L 231.5 605 L 235.5 606 L 240 604 Q 238.9 607.5 246.5 606 L 248.5 606 L 256 605 L 255.5 607 L 109.5 607 L 107.5 607 L 104 606.5 L 106 605.5 L 104 604.5 L 105.5 604 Q 107.2 607.7 109 604.5 Q 110.1 601.2 107.5 602 L 107.5 604 L 104 602.5 L 107 602 L 107.5 600 Z " /><path fill="rgb(254,254,254)" stroke="rgb(254,254,254)" stroke-width="1" opacity="1" d="M 256.5 600 L 260 600.5 L 256 601.5 L 264 602.5 L 248.5 604 L 248.5 603 L 256 602.5 L 248 601.5 L 256.5 600 Z " /><path fill="rgb(254,254,254)" stroke="rgb(254,254,254)" stroke-width="1" opacity="1" d="M 280.5 600 L 288 600.5 L 280.5 601 L 280.5 600 Z " /><path fill="rgb(254,254,254)" stroke="rgb(254,254,254)" stroke-width="1" opacity="1" d="M 312.5 600 L 327.5 601 L 328.5 600 L 343.5 600 L 343.5 601 L 328.5 601 L 317.5 603 L 317.5 602 L 320 601.5 L 312.5 601 L 312.5 600 Z " /><path fill="rgb(254,254,254)" stroke="rgb(254,254,254)" stroke-width="1" opacity="1" d="M 575.5 600 L 578 601.5 L 576.5 602 L 575.5 600 Z " /><path fill="rgb(254,254,254)" stroke="rgb(254,254,254)" stroke-width="1" opacity="1" d="M 612.5 600 L 616 600.5 L 612.5 601 L 612.5 600 Z " /><path fill="rgb(254,254,254)" stroke="rgb(254,254,254)" stroke-width="1" opacity="1" d="M 692.5 600 L 705 601.5 L 696.5 602 L 692.5 601 L 692.5 600 Z " /><path fill="rgb(254,254,254)" stroke="rgb(254,254,254)" stroke-width="1" opacity="1" d="M 717.5 600 L 723 601.5 L 720 602.5 L 727.5 603 L 731.5 602 L 731.5 603 L 728 603 Q 729.3 606 725.5 605 L 720.5 604 L 715.5 605 L 715.5 604 L 720 603.5 L 712 602.5 L 720 601.5 Q 716.7 601.6 717.5 600 Z " /><path fill="rgb(254,254,254)" stroke="rgb(254,254,254)" stroke-width="1" opacity="1" d="M 797.5 600 L 800 600.5 L 797.5 601 L 797.5 600 Z " /><path fill="rgb(254,254,254)" stroke="rgb(254,254,254)" stroke-width="1" opacity="1" d="M 803.5 600 L 808 600.5 L 803.5 601 L 803.5 600 Z " /><path fill="rgb(254,254,254)" stroke="rgb(254,254,254)" stroke-width="1" opacity="1" d="M 813.5 600 L 816 600.5 L 813.5 601 L 813.5 600 Z " /><path fill="rgb(254,254,254)" stroke="rgb(254,254,254)" stroke-width="1" opacity="1" d="M 823.5 600 Q 825.3 602.8 831.5 601 L 835 603.5 L 824.5 604 L 823.5 605 L 824.5 603 L 832 602.5 L 824.5 602 L 823.5 600 Z " /><path fill="rgb(254,254,254)" stroke="rgb(254,254,254)" stroke-width="1" opacity="1" d="M 836.5 600 L 840 600.5 L 836.5 601 L 836.5 600 Z " /><path fill="rgb(254,254,254)" stroke="rgb(254,254,254)" stroke-width="1" opacity="1" d="M 846.5 600 L 855 601.5 L 840.5 603 L 840.5 602 L 848 601.5 L 846.5 600 Z " /><path fill="rgb(254,254,254)" stroke="rgb(254,254,254)" stroke-width="1" opacity="1" d="M 860.5 600 L 864 600.5 L 860.5 601 L 860.5 600 Z " /><path fill="rgb(254,254,254)" stroke="rgb(254,254,254)" stroke-width="1" opacity="1" d="M 868.5 600 L 875 601.5 L 872.5 602 L 868.5 601 L 868.5 600 Z " /><path fill="rgb(254,254,254)" stroke="rgb(254,254,254)" stroke-width="1" opacity="1" d="M 889.5 600 L 890.5 602 L 891.5 600 L 893.5 600 L 895 600.5 L 893 601.5 L 894.5 604 L 895.5 602 L 896 603.5 Q 895 606 890.5 605 Q 889 601.5 887.5 604 L 876.5 605 L 876.5 604 L 887.5 603 L 889 601.5 L 889.5 600 Z M 892 602 L 890 604 L 893 604 L 892 602 Z " /><path fill="rgb(254,254,254)" stroke="rgb(254,254,254)" stroke-width="1" opacity="1" d="M 152.5 601 L 160 601.5 L 150.5 603 L 150.5 602 L 152.5 601 Z " /><path fill="rgb(254,254,254)" stroke="rgb(254,254,254)" stroke-width="1" opacity="1" d="M 168.5 601 L 176 601.5 L 168.5 602 L 168.5 601 Z " /><path fill="rgb(254,254,254)" stroke="rgb(254,254,254)" stroke-width="1" opacity="1" d="M 192.5 601 L 200 601.5 L 192.5 602 L 192.5 601 Z " /><path fill="rgb(254,254,254)" stroke="rgb(254,254,254)" stroke-width="1" opacity="1" d="M 224.5 601 L 240 602.5 L 231.5 604 L 222.5 604 L 222.5 603 L 232 602.5 L 224.5 602 L 224.5 601 Z " /><path fill="rgb(254,254,254)" stroke="rgb(254,254,254)" stroke-width="1" opacity="1" d="M 296.5 601 L 304 601.5 L 295.5 603 L 280 603.5 L 288 604.5 L 280.5 605 L 279.5 604 L 272 604 Q 273.3 607 269.5 606 L 268.5 604 L 279.5 603 L 280.5 602 L 295.5 602 L 296.5 601 Z " /><path fill="rgb(254,254,254)" stroke="rgb(254,254,254)" stroke-width="1" opacity="1" d="M 464.5 601 L 466 601.5 Q 463.3 604.3 456.5 603 L 456.5 602 Q 462.8 603.8 464.5 601 Z " /><path fill="rgb(254,254,254)" stroke="rgb(254,254,254)" stroke-width="1" opacity="1" d="M 512.5 601 L 516 601.5 L 512.5 602 L 512.5 601 Z " /><path fill="rgb(254,254,254)" stroke="rgb(254,254,254)" stroke-width="1" opacity="1" d="M 680.5 601 L 685 601.5 L 680.5 602 L 680.5 601 Z " /><path fill="rgb(254,254,254)" stroke="rgb(254,254,254)" stroke-width="1" opacity="1" d="M 752.5 601 L 759 601.5 L 752.5 602 L 752.5 601 Z " /><path fill="rgb(254,254,254)" stroke="rgb(254,254,254)" stroke-width="1" opacity="1" d="M 880.5 601 L 883 601.5 L 880.5 602 L 880.5 601 Z " /><path fill="rgb(254,254,254)" stroke="rgb(254,254,254)" stroke-width="1" opacity="1" d="M 120.5 602 L 128 602.5 L 116.5 604 L 116.5 603 L 120.5 602 Z " /><path fill="rgb(254,254,254)" stroke="rgb(254,254,254)" stroke-width="1" opacity="1" d="M 208.5 602 L 216 602.5 L 208.5 603 L 208.5 602 Z " /><path fill="rgb(254,254,254)" stroke="rgb(254,254,254)" stroke-width="1" opacity="1" d="M 336.5 602 L 344 602.5 L 336.5 603 L 336.5 602 Z " /><path fill="rgb(254,254,254)" stroke="rgb(254,254,254)" stroke-width="1" opacity="1" d="M 352.5 602 L 353 604 Q 355.7 602.9 355 605.5 L 352.5 604 L 351.5 605 L 348 604.5 L 352 604 L 352.5 602 Z " /><path fill="rgb(254,254,254)" stroke="rgb(254,254,254)" stroke-width="1" opacity="1" d="M 376.5 602 L 384 602.5 L 376.5 603 L 376.5 602 Z " /><path fill="rgb(254,254,254)" stroke="rgb(254,254,254)" stroke-width="1" opacity="1" d="M 396.5 602 L 400 602.5 L 396.5 603 L 396.5 602 Z " /><path fill="rgb(254,254,254)" stroke="rgb(254,254,254)" stroke-width="1" opacity="1" d="M 520.5 602 L 526 602.5 L 520.5 603 L 520.5 602 Z " /><path fill="rgb(254,254,254)" stroke="rgb(254,254,254)" stroke-width="1" opacity="1" d="M 688.5 602 L 693 602.5 L 688.5 603 L 688.5 602 Z " /><path fill="rgb(254,254,254)" stroke="rgb(254,254,254)" stroke-width="1" opacity="1" d="M 736 602 L 738 602.5 Q 737 606 731.5 605 L 731.5 604 Q 737.4 605.7 736 602 Z " /><path fill="rgb(254,254,254)" stroke="rgb(254,254,254)" stroke-width="1" opacity="1" d="M 760.5 602 L 763 602.5 L 759.5 604 L 747.5 605 L 747.5 604 L 759.5 603 L 760.5 602 Z " /><path fill="rgb(254,254,254)" stroke="rgb(254,254,254)" stroke-width="1" opacity="1" d="M 784.5 602 L 795 602.5 L 784 603.5 L 792 604.5 L 781.5 605 L 780.5 604 L 768.5 604 L 765.5 605 L 765.5 604 L 768.5 603 L 783.5 603 L 784.5 602 Z " /><path fill="rgb(254,254,254)" stroke="rgb(254,254,254)" stroke-width="1" opacity="1" d="M 808.5 602 Q 810 604.5 815.5 603 Q 816.8 600.7 821.5 602 L 821.5 603 L 804.5 605 L 804.5 604 Q 809 605.3 808.5 602 Z " /><path fill="rgb(254,254,254)" stroke="rgb(254,254,254)" stroke-width="1" opacity="1" d="M 856.5 602 L 861 602.5 L 856.5 603 L 856.5 602 Z " /><path fill="rgb(254,254,254)" stroke="rgb(254,254,254)" stroke-width="1" opacity="1" d="M 864 602 Q 867.8 601 869 603.5 L 860.5 605 L 860.5 604 Q 865.3 605.3 864 602 Z " /><path fill="rgb(254,254,254)" stroke="rgb(254,254,254)" stroke-width="1" opacity="1" d="M 168.5 603 L 176 603.5 L 168.5 604 L 168.5 603 Z " /><path fill="rgb(254,254,254)" stroke="rgb(254,254,254)" stroke-width="1" opacity="1" d="M 302 603 Q 305.1 602.3 304.5 605 L 311.5 605 L 311.5 606 L 302.5 606 L 302 603 Z " /><path fill="rgb(254,254,254)" stroke="rgb(254,254,254)" stroke-width="1" opacity="1" d="M 387.5 603 L 400 604.5 L 387.5 606 L 387.5 605 L 392 604.5 L 387.5 604 L 387.5 603 Z " /><path fill="rgb(254,254,254)" stroke="rgb(254,254,254)" stroke-width="1" opacity="1" d="M 414.5 603 L 423.5 603 L 432 604.5 L 420.5 606 L 420.5 605 L 424 604.5 L 414.5 604 L 414.5 603 Z " /><path fill="rgb(254,254,254)" stroke="rgb(254,254,254)" stroke-width="1" opacity="1" d="M 442.5 603 L 456 604.5 L 447.5 606 L 447.5 604 Q 441.5 605.3 442.5 603 Z " /><path fill="rgb(254,254,254)" stroke="rgb(254,254,254)" stroke-width="1" opacity="1" d="M 696.5 603 L 704 603.5 L 693.5 605 L 693.5 604 L 696.5 603 Z " /><path fill="rgb(254,254,254)" stroke="rgb(254,254,254)" stroke-width="1" opacity="1" d="M 124.5 604 L 128 604.5 L 124.5 605 L 124.5 604 Z " /><path fill="rgb(254,254,254)" stroke="rgb(254,254,254)" stroke-width="1" opacity="1" d="M 133.5 604 L 136 604.5 L 133.5 605 L 133.5 604 Z " /><path fill="rgb(254,254,254)" stroke="rgb(254,254,254)" stroke-width="1" opacity="1" d="M 154.5 604 L 160 604.5 L 154.5 605 L 154.5 604 Z " /><path fill="rgb(254,254,254)" stroke="rgb(254,254,254)" stroke-width="1" opacity="1" d="M 180.5 604 L 184 604.5 L 180.5 605 L 180.5 604 Z " /><path fill="rgb(254,254,254)" stroke="rgb(254,254,254)" stroke-width="1" opacity="1" d="M 258.5 604 L 264 604.5 L 258.5 605 L 258.5 604 Z " /><path fill="rgb(254,254,254)" stroke="rgb(254,254,254)" stroke-width="1" opacity="1" d="M 313.5 604 L 320 604.5 L 313.5 605 L 313.5 604 Z " /><path fill="rgb(254,254,254)" stroke="rgb(254,254,254)" stroke-width="1" opacity="1" d="M 325.5 604 L 328 604.5 L 325.5 605 L 325.5 604 Z " /><path fill="rgb(254,254,254)" stroke="rgb(254,254,254)" stroke-width="1" opacity="1" d="M 336.5 604 L 344 604.5 L 329.5 606 L 329.5 605 Q 335 606.5 336.5 604 Z " /><path fill="rgb(254,254,254)" stroke="rgb(254,254,254)" stroke-width="1" opacity="1" d="M 405.5 604 L 408 604.5 L 405.5 605 L 405.5 604 Z " /><path fill="rgb(254,254,254)" stroke="rgb(254,254,254)" stroke-width="1" opacity="1" d="M 439.5 604 L 440 606 L 435 605.5 L 439.5 604 Z " /><path fill="rgb(254,254,254)" stroke="rgb(254,254,254)" stroke-width="1" opacity="1" d="M 484.5 604 Q 489.3 602.7 488 606 Q 484.2 606.8 484.5 604 Z " /><path fill="rgb(254,254,254)" stroke="rgb(254,254,254)" stroke-width="1" opacity="1" d="M 674.5 604 L 680 604.5 L 674.5 605 L 674.5 604 Z " /><path fill="rgb(254,254,254)" stroke="rgb(254,254,254)" stroke-width="1" opacity="1" d="M 709.5 604 L 712 604.5 L 709.5 605 L 709.5 604 Z " /><path fill="rgb(254,254,254)" stroke="rgb(254,254,254)" stroke-width="1" opacity="1" d="M 843.5 604 L 848 604.5 L 843.5 605 L 843.5 604 Z " /><path fill="rgb(254,254,254)" stroke="rgb(254,254,254)" stroke-width="1" opacity="1" d="M 378.5 605 L 384 605.5 L 378.5 606 L 378.5 605 Z " /><path fill="rgb(254,254,254)" stroke="rgb(254,254,254)" stroke-width="1" opacity="1" d="M 411.5 605 L 416 605.5 L 411.5 606 L 411.5 605 Z " /><path fill="rgb(254,254,254)" stroke="rgb(254,254,254)" stroke-width="1" opacity="1" d="M 461.5 605 L 464 605.5 L 461.5 606 L 461.5 605 Z " /><path fill="rgb(254,254,254)" stroke="rgb(254,254,254)" stroke-width="1" opacity="1" d="M 744 609 L 890.5 609 L 891.5 610 L 895.5 609 L 895.5 610 L 894 610.5 L 896 611.5 L 894.5 612 L 890.5 610 L 889 610.5 L 889 612.5 L 889.5 614 L 891.5 614 L 893 613.5 L 892.5 612 L 896 613.5 L 893 614 L 892.5 616 L 890.5 614 L 888 615.5 L 888 613.5 L 889 611.5 L 880.5 611 L 879.5 610 L 863.5 610 L 856 611.5 L 859 612.5 L 856.5 613 L 848 611.5 L 856 610.5 L 838.5 610 Q 837.3 612.3 832.5 611 L 829.5 610 L 824.5 611 L 823.5 610 L 812.5 610 L 808.5 611 L 805.5 610 Q 800.9 612.9 792.5 612 L 792.5 611 L 800 610.5 L 787.5 610 L 784.5 611 L 779.5 610 L 776.5 611 Q 775.3 608.8 770.5 610 L 768.5 611 L 764.5 610 L 760 612 Q 761.1 608.5 753.5 610 L 751.5 610 L 744 611 L 744 609 Z " /><path fill="rgb(254,254,254)" stroke="rgb(254,254,254)" stroke-width="1" opacity="1" d="M 348.5 610 L 353.5 611 L 355 610.5 L 354.5 613 L 352 612.5 L 352.5 611 Q 347.5 612 348.5 610 Z " /><path fill="rgb(254,254,254)" stroke="rgb(254,254,254)" stroke-width="1" opacity="1" d="M 360.5 610 L 505.5 610 L 507 611.5 L 504 612 L 504.5 614 L 511.5 614 L 512.5 613 L 528 612 Q 526.7 608.7 531.5 610 L 531.5 611 L 530 611.5 L 533 612.5 L 520 613.5 L 528 614.5 L 520.5 615 Q 518.8 612.2 512.5 614 Q 510.8 616.8 504.5 615 Q 501.5 612.2 496 613 Q 494.6 616.7 500.5 615 L 500.5 616 L 490 614.5 Q 495.2 611.2 504 611.5 L 492.5 611 Q 489.6 613.6 483.5 613 L 483.5 612 L 488 611.5 L 474.5 611 Q 471.4 614.4 464 613.5 L 476 615.5 L 472.5 616 Q 470.7 613.3 464.5 615 L 462 613.5 L 464 613 Q 465.4 609 458.5 611 L 456.5 612 L 453.5 611 L 448 612.5 L 456 613.5 L 448 614.5 L 451 615.5 L 448.5 616 L 445 614.5 L 448 613.5 L 440.5 613 L 435.5 614 L 435.5 613 Q 441.4 614.7 440 611 L 432.5 612 L 431.5 611 L 419.5 611 Q 415.6 614.1 408 613.5 L 420 615.5 L 416.5 616 Q 415.3 613.8 410.5 615 L 408 616 Q 409.4 612.3 403.5 614 L 403.5 613 L 416 611.5 L 398.5 611 L 392 612 L 391.5 614 Q 390 611.5 384.5 613 L 379.5 614 L 379.5 613 L 392 611.5 L 380.5 611 Q 375.9 613.9 368 613.5 L 376 614.5 L 368.5 615 L 364 613.5 L 376 611.5 L 363.5 611 L 360 612 L 359.5 678 L 359 611.5 L 360.5 610 Z M 444 611 L 444 612 L 448 612 L 444 611 Z M 466 611 L 466 612 L 472 612 L 466 611 Z " /><path fill="rgb(254,254,254)" stroke="rgb(254,254,254)" stroke-width="1" opacity="1" d="M 512 610 L 516 611.5 L 512 612 L 512 610 Z " /><path fill="rgb(254,254,254)" stroke="rgb(254,254,254)" stroke-width="1" opacity="1" d="M 536.5 610 L 539 610.5 L 536.5 611 L 536.5 610 Z " /><path fill="rgb(254,254,254)" stroke="rgb(254,254,254)" stroke-width="1" opacity="1" d="M 552.5 610 L 552.5 612 L 558 612.5 L 552.5 613 L 544 611.5 L 552.5 610 Z " /><path fill="rgb(254,254,254)" stroke="rgb(254,254,254)" stroke-width="1" opacity="1" d="M 560 610 L 565 610.5 L 560.5 612 L 560 610 Z " /><path fill="rgb(254,254,254)" stroke="rgb(254,254,254)" stroke-width="1" opacity="1" d="M 576.5 610 L 580 610.5 L 576 611.5 L 586 612.5 L 576.5 613 L 568 611.5 L 576.5 610 Z " /><path fill="rgb(254,254,254)" stroke="rgb(254,254,254)" stroke-width="1" opacity="1" d="M 584.5 610 L 589 610.5 L 584.5 611 L 584.5 610 Z " /><path fill="rgb(254,254,254)" stroke="rgb(254,254,254)" stroke-width="1" opacity="1" d="M 608.5 610 L 613 610.5 L 608 611.5 L 613 612.5 L 608.5 613 L 600 611.5 L 608.5 610 Z " /><path fill="rgb(254,254,254)" stroke="rgb(254,254,254)" stroke-width="1" opacity="1" d="M 616.5 610 L 622 610.5 L 616.5 611 L 616.5 610 Z " /><path fill="rgb(254,254,254)" stroke="rgb(254,254,254)" stroke-width="1" opacity="1" d="M 632.5 610 L 637 610.5 L 632 611.5 L 650 613 L 651 616.5 L 649 615.5 L 648.5 614 L 640.5 614 L 639.5 613 L 624 611.5 L 632.5 610 Z " /><path fill="rgb(254,254,254)" stroke="rgb(254,254,254)" stroke-width="1" opacity="1" d="M 640.5 610 L 648 610.5 L 640.5 611 L 640.5 610 Z " /><path fill="rgb(254,254,254)" stroke="rgb(254,254,254)" stroke-width="1" opacity="1" d="M 650.5 610 L 649.5 612 L 650.5 610 Z " /><path fill="rgb(254,254,254)" stroke="rgb(254,254,254)" stroke-width="1" opacity="1" d="M 655.5 610 Q 657.3 612.7 663.5 611 Q 665 608.5 670.5 610 L 670.5 611 L 656 612.5 L 664 613.5 L 656 614.5 L 671.5 615 L 682.5 613 L 682.5 614 L 680 614.5 L 688 615.5 L 680.5 616 Q 678.8 613.3 672.5 615 L 671.5 616 L 656 616 L 655.5 678 L 655.5 610 Z " /><path fill="rgb(254,254,254)" stroke="rgb(254,254,254)" stroke-width="1" opacity="1" d="M 688.5 610 L 697.5 610 L 698 613 Q 694.9 613.8 695.5 611 L 688.5 611 L 688.5 610 Z " /><path fill="rgb(254,254,254)" stroke="rgb(254,254,254)" stroke-width="1" opacity="1" d="M 728 610 L 732 611.5 L 719.5 614 L 696.5 615 L 696.5 614 L 720 612.5 L 712 611.5 L 719.5 611 L 720.5 612 L 728 612 L 728 610 Z " /><path fill="rgb(254,254,254)" stroke="rgb(254,254,254)" stroke-width="1" opacity="1" d="M 105.5 611 Q 110.5 610 111.5 613 L 112.5 612 L 123.5 611 L 123.5 612 L 112.5 613 L 111 614.5 L 110.5 616 L 109.5 614 L 108.5 616 L 106.5 616 L 105 615.5 L 107 614.5 L 105.5 612 L 104.5 614 L 104 612.5 L 105.5 611 Z M 108 612 Q 108 616 110 613 L 108 612 Z " /><path fill="rgb(254,254,254)" stroke="rgb(254,254,254)" stroke-width="1" opacity="1" d="M 136.5 611 L 140 611.5 L 136 612 Q 137.3 615.3 132.5 614 L 131.5 612 L 136.5 611 Z " /><path fill="rgb(254,254,254)" stroke="rgb(254,254,254)" stroke-width="1" opacity="1" d="M 152.5 611 L 157 611.5 L 152.5 612 L 152.5 611 Z " /><path fill="rgb(254,254,254)" stroke="rgb(254,254,254)" stroke-width="1" opacity="1" d="M 176.5 611 L 175.5 613 L 168 613.5 L 175.5 614 L 177 615.5 L 175.5 615 Q 167.5 616.5 165 612.5 L 175.5 612 L 176.5 611 Z " /><path fill="rgb(254,254,254)" stroke="rgb(254,254,254)" stroke-width="1" opacity="1" d="M 192.5 611 L 196 611.5 L 192 612 L 191.5 614 Q 190 611.5 184.5 613 Q 183.3 615.3 178.5 614 L 178.5 613 L 191.5 612 L 192.5 611 Z " /><path fill="rgb(254,254,254)" stroke="rgb(254,254,254)" stroke-width="1" opacity="1" d="M 208.5 611 L 231.5 612 L 234.5 611 L 234.5 612 L 231.5 613 L 205.5 614 L 205.5 613 L 216 612.5 L 208.5 612 L 208.5 611 Z " /><path fill="rgb(254,254,254)" stroke="rgb(254,254,254)" stroke-width="1" opacity="1" d="M 248.5 611 L 253 611.5 L 237.5 614 L 237.5 613 L 248.5 611 Z " /><path fill="rgb(254,254,254)" stroke="rgb(254,254,254)" stroke-width="1" opacity="1" d="M 264.5 611 L 269 611.5 L 264 612 Q 265.1 614.7 262.5 614 L 264.5 611 Z " /><path fill="rgb(254,254,254)" stroke="rgb(254,254,254)" stroke-width="1" opacity="1" d="M 272 611 L 279.5 612 L 284.5 611 L 284.5 612 L 280 612.5 L 288 613.5 L 280 614.5 L 283 615.5 L 280.5 616 L 277 614.5 L 280 613.5 L 272.5 613 L 268.5 614 L 268.5 613 Q 273.3 614.3 272 611 Z " /><path fill="rgb(254,254,254)" stroke="rgb(254,254,254)" stroke-width="1" opacity="1" d="M 288.5 611 L 291 611.5 L 288.5 612 L 288.5 611 Z " /><path fill="rgb(254,254,254)" stroke="rgb(254,254,254)" stroke-width="1" opacity="1" d="M 304.5 611 L 307 611.5 Q 303.6 614.1 296.5 613 L 296.5 612 Q 302.7 613.7 304.5 611 Z " /><path fill="rgb(254,254,254)" stroke="rgb(254,254,254)" stroke-width="1" opacity="1" d="M 320.5 611 L 326 611.5 L 320.5 612 L 320.5 611 Z " /><path fill="rgb(254,254,254)" stroke="rgb(254,254,254)" stroke-width="1" opacity="1" d="M 328.5 611 Q 330 613.5 335.5 612 L 336.5 611 L 346.5 611 L 346.5 612 L 336.5 612 L 336 614 L 333.5 614 L 328 613 Q 326.8 616 330.5 615 L 330.5 616 L 324 614.5 L 328 613 L 328.5 611 Z " /><path fill="rgb(254,254,254)" stroke="rgb(254,254,254)" stroke-width="1" opacity="1" d="M 592.5 611 L 595 611.5 L 592.5 612 L 592.5 611 Z " /><path fill="rgb(254,254,254)" stroke="rgb(254,254,254)" stroke-width="1" opacity="1" d="M 672.5 611 L 675 611.5 L 672.5 612 L 672.5 611 Z " /><path fill="rgb(254,254,254)" stroke="rgb(254,254,254)" stroke-width="1" opacity="1" d="M 680.5 611 L 687 611.5 L 680.5 612 L 680.5 611 Z " /><path fill="rgb(254,254,254)" stroke="rgb(254,254,254)" stroke-width="1" opacity="1" d="M 736.5 611 L 742 611.5 L 736.5 612 L 736.5 611 Z " /><path fill="rgb(254,254,254)" stroke="rgb(254,254,254)" stroke-width="1" opacity="1" d="M 816.5 611 L 820 611.5 L 816.5 612 L 816.5 611 Z " /><path fill="rgb(254,254,254)" stroke="rgb(254,254,254)" stroke-width="1" opacity="1" d="M 840.5 611 L 846 611.5 L 840.5 612 L 840.5 611 Z " /><path fill="rgb(254,254,254)" stroke="rgb(254,254,254)" stroke-width="1" opacity="1" d="M 864.5 611 L 867 611.5 L 864.5 612 L 864.5 611 Z " /><path fill="rgb(254,254,254)" stroke="rgb(254,254,254)" stroke-width="1" opacity="1" d="M 872.5 611 L 876 611.5 L 872.5 612 L 872.5 611 Z " /><path fill="rgb(254,254,254)" stroke="rgb(254,254,254)" stroke-width="1" opacity="1" d="M 744.5 612 L 752 612.5 L 744 613.5 L 752 614.5 L 740.5 616 L 740.5 615 L 744 614.5 L 736 613.5 L 744.5 612 Z " /><path fill="rgb(254,254,254)" stroke="rgb(254,254,254)" stroke-width="1" opacity="1" d="M 768.5 612 L 778 612.5 L 768 613.5 L 776 614.5 L 768.5 615 L 760 613.5 L 768.5 612 Z " /><path fill="rgb(254,254,254)" stroke="rgb(254,254,254)" stroke-width="1" opacity="1" d="M 824.5 612 L 832 612.5 L 824.5 613 L 824.5 612 Z " /><path fill="rgb(254,254,254)" stroke="rgb(254,254,254)" stroke-width="1" opacity="1" d="M 880.5 612 L 884 612.5 Q 879.9 614.9 872.5 614 L 872.5 613 Q 878.8 614.8 880.5 612 Z " /><path fill="rgb(254,254,254)" stroke="rgb(254,254,254)" stroke-width="1" opacity="1" d="M 139.5 613 L 144 613.5 L 139.5 614 L 139.5 613 Z " /><path fill="rgb(254,254,254)" stroke="rgb(254,254,254)" stroke-width="1" opacity="1" d="M 152.5 613 L 160 613.5 L 152 614.5 L 154 615.5 L 152.5 616 L 145 614.5 L 152.5 613 Z " /><path fill="rgb(254,254,254)" stroke="rgb(254,254,254)" stroke-width="1" opacity="1" d="M 307.5 613 L 312 613.5 L 307.5 614 L 307.5 613 Z " /><path fill="rgb(254,254,254)" stroke="rgb(254,254,254)" stroke-width="1" opacity="1" d="M 340.5 613 L 352 614.5 L 344.5 615 L 340.5 614 L 340.5 613 Z " /><path fill="rgb(254,254,254)" stroke="rgb(254,254,254)" stroke-width="1" opacity="1" d="M 474.5 613 L 480 613.5 L 474.5 614 L 474.5 613 Z " /><path fill="rgb(254,254,254)" stroke="rgb(254,254,254)" stroke-width="1" opacity="1" d="M 536.5 613 L 544 613.5 L 534.5 615 L 534.5 614 L 536.5 613 Z " /><path fill="rgb(254,254,254)" stroke="rgb(254,254,254)" stroke-width="1" opacity="1" d="M 600.5 613 L 604 613.5 L 600.5 614 L 600.5 613 Z " /><path fill="rgb(254,254,254)" stroke="rgb(254,254,254)" stroke-width="1" opacity="1" d="M 616.5 613 L 624 613.5 L 616.5 614 L 616.5 613 Z " /><path fill="rgb(254,254,254)" stroke="rgb(254,254,254)" stroke-width="1" opacity="1" d="M 784.5 613 L 792 613.5 L 784.5 614 L 784.5 613 Z " /><path fill="rgb(254,254,254)" stroke="rgb(254,254,254)" stroke-width="1" opacity="1" d="M 848.5 613 L 850 613.5 Q 847.3 616.3 840.5 615 L 840.5 614 Q 846.8 615.8 848.5 613 Z " /><path fill="rgb(254,254,254)" stroke="rgb(254,254,254)" stroke-width="1" opacity="1" d="M 117.5 614 L 120 614.5 L 117.5 615 L 117.5 614 Z " /><path fill="rgb(254,254,254)" stroke="rgb(254,254,254)" stroke-width="1" opacity="1" d="M 125.5 614 L 132 615.5 L 128.5 616 L 125.5 615 L 125.5 614 Z " /><path fill="rgb(254,254,254)" stroke="rgb(254,254,254)" stroke-width="1" opacity="1" d="M 241.5 614 L 248 614.5 L 241.5 615 L 241.5 614 Z " /><path fill="rgb(254,254,254)" stroke="rgb(254,254,254)" stroke-width="1" opacity="1" d="M 295.5 614 Q 303.5 613 308 615.5 L 304.5 616 L 303.5 615 L 295.5 615 L 295.5 614 Z " /><path fill="rgb(254,254,254)" stroke="rgb(254,254,254)" stroke-width="1" opacity="1" d="M 315.5 614 L 320 614.5 L 315.5 615 L 315.5 614 Z " /><path fill="rgb(254,254,254)" stroke="rgb(254,254,254)" stroke-width="1" opacity="1" d="M 353.5 614 L 355 616.5 L 354 616.5 L 353.5 614 Z " /><path fill="rgb(254,254,254)" stroke="rgb(254,254,254)" stroke-width="1" opacity="1" d="M 422.5 614 L 425 615.5 L 423.5 615 L 422.5 614 Z " /><path fill="rgb(254,254,254)" stroke="rgb(254,254,254)" stroke-width="1" opacity="1" d="M 484.5 614 L 488 614.5 L 484.5 615 L 484.5 614 Z " /><path fill="rgb(254,254,254)" stroke="rgb(254,254,254)" stroke-width="1" opacity="1" d="M 800.5 614 L 808 614.5 L 800.5 615 L 800.5 614 Z " /><path fill="rgb(254,254,254)" stroke="rgb(254,254,254)" stroke-width="1" opacity="1" d="M 824.5 614 L 832 614.5 L 824.5 615 L 824.5 614 Z " /><path fill="rgb(254,254,254)" stroke="rgb(254,254,254)" stroke-width="1" opacity="1" d="M 136.5 615 L 140 615.5 L 136.5 616 L 136.5 615 Z " /><path fill="rgb(254,254,254)" stroke="rgb(254,254,254)" stroke-width="1" opacity="1" d="M 160.5 615 L 164 615.5 L 160.5 616 L 160.5 615 Z " /><path fill="rgb(254,254,254)" stroke="rgb(254,254,254)" stroke-width="1" opacity="1" d="M 184.5 615 L 187 615.5 L 184.5 616 L 184.5 615 Z " /><path fill="rgb(254,254,254)" stroke="rgb(254,254,254)" stroke-width="1" opacity="1" d="M 192.5 615 L 197 615.5 L 192.5 616 L 192.5 615 Z " /><path fill="rgb(254,254,254)" stroke="rgb(254,254,254)" stroke-width="1" opacity="1" d="M 200.5 615 L 203 615.5 L 200.5 616 L 200.5 615 Z " /><path fill="rgb(254,254,254)" stroke="rgb(254,254,254)" stroke-width="1" opacity="1" d="M 384.5 615 L 388 615.5 L 384.5 616 L 384.5 615 Z " /><path fill="rgb(254,254,254)" stroke="rgb(254,254,254)" stroke-width="1" opacity="1" d="M 712.5 615 L 720 615.5 L 712.5 616 L 712.5 615 Z " /><path fill="rgb(254,254,254)" stroke="rgb(254,254,254)" stroke-width="1" opacity="1" d="M 354.5 619 L 355 621.5 L 354 621.5 L 354.5 619 Z " /><path fill="rgb(254,254,254)" stroke="rgb(254,254,254)" stroke-width="1" opacity="1" d="M 650.5 619 L 651 621.5 L 650 621.5 L 650.5 619 Z " /><path fill="rgb(254,254,254)" stroke="rgb(254,254,254)" stroke-width="1" opacity="1" d="M 353.5 648 L 355 655.5 L 354 655.5 L 353.5 648 Z " /><path fill="rgb(254,254,254)" stroke="rgb(254,254,254)" stroke-width="1" opacity="1" d="M 649.5 648 L 651 655.5 L 650 655.5 L 649.5 648 Z " /><path fill="rgb(254,254,254)" stroke="rgb(254,254,254)" stroke-width="1" opacity="1" d="M 354.5 672 L 355 677.5 L 354 678.5 L 354 703.5 L 355 705.5 L 354 705.5 L 353.5 704 L 352.5 706 L 352 704.5 L 353 703.5 L 353 677.5 L 354.5 672 Z " /><path fill="rgb(254,254,254)" stroke="rgb(254,254,254)" stroke-width="1" opacity="1" d="M 650.5 672 L 651 677.5 L 650 678.5 L 650 703.5 L 651 705.5 L 650 705.5 L 649.5 704 L 648.5 706 L 648 704.5 L 649 703.5 L 649 677.5 L 650.5 672 Z " /><path fill="rgb(254,254,254)" stroke="rgb(254,254,254)" stroke-width="1" opacity="1" d="M 353.5 707 L 354 710.5 L 353 710.5 L 353.5 707 Z " /><path fill="rgb(254,254,254)" stroke="rgb(254,254,254)" stroke-width="1" opacity="1" d="M 649.5 707 L 650 710.5 L 649 710.5 L 649.5 707 Z " /><path fill="rgb(254,254,254)" stroke="rgb(254,254,254)" stroke-width="1" opacity="1" d="M 353.5 712 L 354 732.5 L 353 732.5 L 353.5 712 Z " /><path fill="rgb(254,254,254)" stroke="rgb(254,254,254)" stroke-width="1" opacity="1" d="M 649.5 712 L 650 732.5 L 649 732.5 L 649.5 712 Z " /><path fill="rgb(254,254,254)" stroke="rgb(254,254,254)" stroke-width="1" opacity="1" d="M 354.5 734 L 355 752.5 L 354 752.5 L 354.5 734 Z " /><path fill="rgb(254,254,254)" stroke="rgb(254,254,254)" stroke-width="1" opacity="1" d="M 650.5 734 L 651 752.5 L 650 752.5 L 650.5 734 Z " /><path fill="rgb(254,254,254)" stroke="rgb(254,254,254)" stroke-width="1" opacity="1" d="M 353 756 Q 356 755 355 758 Q 352 759 353 756 Z " /><path fill="rgb(254,254,254)" stroke="rgb(254,254,254)" stroke-width="1" opacity="1" d="M 649 756 Q 652 755 651 758 Q 648 759 649 756 Z " /><path fill="rgb(254,254,254)" stroke="rgb(254,254,254)" stroke-width="1" opacity="1" d="M 353.5 760 L 354 783.5 L 354 785.5 L 353.5 789 L 352 784.5 L 353 783.5 L 353.5 760 Z " /><path fill="rgb(254,254,254)" stroke="rgb(254,254,254)" stroke-width="1" opacity="1" d="M 355.5 760 L 356 783.5 L 355 783.5 L 355.5 760 Z " /><path fill="rgb(254,254,254)" stroke="rgb(254,254,254)" stroke-width="1" opacity="1" d="M 649.5 760 L 650 783.5 L 650 785.5 L 649.5 789 L 648 784.5 L 649 783.5 L 649.5 760 Z " /><path fill="rgb(254,254,254)" stroke="rgb(254,254,254)" stroke-width="1" opacity="1" d="M 651.5 760 L 652 783.5 L 651 783.5 L 651.5 760 Z " /><path fill="rgb(254,254,254)" stroke="rgb(254,254,254)" stroke-width="1" opacity="1" d="M 355.5 785 L 356 923.5 L 355 923.5 L 354.5 894 L 353 894.5 L 352 869.5 L 353 869.5 L 353 887.5 L 354.5 892 L 355 872.5 L 354 869.5 L 355 864.5 L 354 864.5 L 353.5 867 L 353 864.5 L 354 863.5 L 354 844.5 L 355 842.5 L 353 839.5 L 353 815.5 L 354 811.5 L 353 811.5 L 352.5 813 L 352 811.5 L 353 810.5 L 353 792.5 L 352 790.5 L 353 790.5 L 353.5 792 L 355.5 785 Z M 355 792 L 354 811 L 355 811 L 355 792 Z M 355 815 L 354 840 L 355 840 L 355 815 Z " /><path fill="rgb(254,254,254)" stroke="rgb(254,254,254)" stroke-width="1" opacity="1" d="M 651.5 785 L 652 923.5 L 651 923.5 L 650.5 894 L 649 894.5 L 648 869.5 L 649 869.5 L 649 887.5 L 650.5 892 L 651 872.5 L 650 869.5 L 651 864.5 L 650 864.5 L 649.5 867 L 649 864.5 L 650 863.5 L 650 844.5 L 651 842.5 L 649 839.5 L 649 815.5 L 650 811.5 L 649 811.5 L 648.5 813 L 648 811.5 L 649 810.5 L 649 792.5 L 648 790.5 L 649 790.5 L 649.5 792 L 651.5 785 Z M 651 792 L 650 811 L 651 811 L 651 792 Z M 651 815 L 650 840 L 651 840 L 651 815 Z " /><path fill="rgb(254,254,254)" stroke="rgb(254,254,254)" stroke-width="1" opacity="1" d="M 353.5 920 L 354 924.5 L 353 924.5 L 353.5 920 Z " /><path fill="rgb(254,254,254)" stroke="rgb(254,254,254)" stroke-width="1" opacity="1" d="M 649.5 920 L 650 924.5 L 649 924.5 L 649.5 920 Z " /><path fill="rgb(254,254,254)" stroke="rgb(254,254,254)" stroke-width="1" opacity="1" d="M 354.5 926 L 356 928.5 L 354 927.5 L 354.5 926 Z " /><path fill="rgb(254,254,254)" stroke="rgb(254,254,254)" stroke-width="1" opacity="1" d="M 650.5 926 L 652 928.5 L 650 927.5 L 650.5 926 Z " /><path fill="rgb(254,254,254)" stroke="rgb(254,254,254)" stroke-width="1" opacity="1" d="M 353.5 929 L 354.5 931 L 356 930.5 L 355 933.5 L 357.5 935 L 359 934.5 L 356.5 936 Q 352.8 934 354.5 932 L 352 931.5 L 353.5 929 Z " /><path fill="rgb(254,254,254)" stroke="rgb(254,254,254)" stroke-width="1" opacity="1" d="M 649.5 929 L 650.5 931 L 652 930.5 L 651 933.5 L 653.5 935 L 655 934.5 L 652.5 936 Q 648.8 934 650.5 932 L 648 931.5 L 649.5 929 Z " /><path fill="rgb(255,255,255)" stroke="rgb(255,255,255)" stroke-width="1" opacity="1" d="M 0 0 L 1000 0 L 1000 1000 L 0 1000 L 0 0 Z M 355 66 L 353 69 L 354 72 L 354 83 L 353 81 L 352 81 Q 351 85 354 87 L 354 104 L 352 108 Q 351 110 354 109 Q 355 112 353 111 L 353 112 L 354 113 L 354 161 L 352 162 L 354 166 L 353 169 L 353 186 L 354 187 Q 355 191 353 193 L 353 216 L 353 220 L 354 223 L 352 224 L 354 224 L 354 242 L 352 244 Q 351 246 354 245 Q 355 248 353 247 L 353 248 L 354 249 L 354 269 L 353 268 L 352 271 L 354 271 L 354 281 L 353 272 L 352 282 L 337 282 L 336 283 Q 329 285 328 282 Q 321 280 320 283 Q 313 285 312 282 Q 306 281 305 283 L 273 283 L 272 282 Q 265 280 264 283 L 249 282 L 248 281 L 243 282 L 246 282 L 246 283 L 233 283 L 232 281 L 226 282 L 229 282 L 229 283 L 224 282 L 221 283 L 216 282 L 206 282 L 205 283 L 200 282 L 197 283 L 192 282 L 189 283 L 184 282 L 181 283 L 176 282 L 171 283 L 168 282 L 165 283 L 153 283 L 152 282 Q 147 281 146 283 L 144 282 L 141 283 L 136 282 L 131 283 L 128 282 L 112 283 L 109 284 L 109 282 L 105 283 L 104 288 L 352 288 L 353 296 L 354 288 L 354 297 L 352 298 L 354 301 L 354 320 L 353 321 L 354 323 Q 355 327 353 329 L 353 352 Q 350 353 354 355 L 352 360 L 353 361 L 353 376 L 354 378 L 352 378 Q 351 380 354 379 L 354 400 L 352 402 L 353 404 L 353 403 L 354 403 L 353 406 L 354 409 L 354 435 L 353 433 L 352 433 Q 351 437 354 439 L 354 456 L 353 457 L 354 460 L 353 465 L 353 488 L 352 489 L 354 489 L 354 496 L 355 497 L 355 518 L 354 519 L 355 521 L 355 539 L 354 540 L 355 542 L 354 545 L 354 570 L 355 571 Q 356 575 354 577 L 354 592 L 355 593 L 355 595 L 354 593 L 353 593 L 354 600 L 355 603 Q 356 605 354 604 L 354 606 L 337 606 L 336 605 Q 330 604 329 606 L 313 606 L 312 605 L 305 605 L 304 603 Q 301 602 302 606 L 273 606 Q 274 603 269 604 L 269 606 L 257 606 L 256 605 L 249 606 L 247 606 Q 239 608 240 604 L 236 606 L 232 605 L 230 606 Q 225 607 224 605 L 221 606 L 216 605 L 213 606 L 201 606 L 200 605 L 195 606 L 192 605 L 188 606 L 177 606 L 176 605 L 171 606 L 168 605 Q 163 604 162 606 L 145 606 L 144 605 Q 138 604 137 606 L 121 606 L 120 605 Q 113 604 110 606 Q 108 609 107 605 L 105 606 L 104 609 L 106 614 L 109 616 L 107 613 L 111 611 L 120 611 L 121 612 L 125 611 L 136 611 L 137 612 L 144 611 L 146 611 Q 151 610 153 612 L 158 611 L 161 612 L 163 611 L 176 611 L 178 611 L 192 611 L 193 612 L 197 611 L 208 611 L 217 613 L 232 613 L 220 612 L 220 611 L 232 611 L 233 612 L 236 611 L 248 611 L 249 612 L 254 611 L 264 611 L 265 612 L 270 611 Q 273 610 272 613 L 280 613 L 276 612 L 276 611 L 281 612 L 286 611 L 289 612 L 292 611 L 304 611 L 305 612 L 308 611 L 320 611 L 321 612 Q 325 613 327 611 Q 329 610 328 613 L 336 614 Q 337 611 330 612 L 330 611 Q 335 610 337 612 L 353 611 L 355 611 L 355 614 L 354 616 L 355 618 L 354 620 L 355 623 L 355 653 L 354 649 L 353 649 Q 352 655 355 657 Q 357 670 353 678 L 354 704 L 354 679 L 355 679 L 355 704 L 354 705 L 355 707 L 355 734 L 354 735 L 354 753 L 355 754 Q 356 757 353 756 Q 352 759 355 758 L 355 790 L 354 791 L 355 793 L 355 811 L 354 812 L 355 816 L 355 840 L 354 841 L 355 843 L 354 845 L 354 864 L 355 865 L 354 870 L 355 873 L 355 892 L 354 888 L 353 895 L 355 894 L 355 924 L 356 928 L 355 931 L 354 929 L 352 932 L 359 935 L 360 934 L 360 612 L 364 611 L 376 611 L 377 612 L 381 611 L 392 611 L 393 612 Q 397 613 399 611 L 416 611 L 417 612 L 420 611 L 432 611 L 433 612 L 438 611 Q 441 610 440 613 L 448 613 L 444 612 L 444 611 L 449 612 L 454 611 L 457 612 L 459 611 Q 465 609 464 613 L 472 613 L 466 612 L 466 611 Q 471 610 473 612 L 475 611 L 488 611 L 489 612 L 493 611 Q 501 610 507 612 L 507 610 L 512 610 Q 511 613 516 612 L 515 611 L 528 610 L 528 612 L 521 612 L 521 613 L 533 613 L 530 612 L 533 610 L 537 611 L 540 610 L 552 610 L 553 611 L 554 610 L 560 610 L 561 612 L 566 610 L 576 610 L 577 611 L 581 610 L 585 611 L 590 610 L 608 610 L 609 611 L 614 610 L 617 611 Q 621 612 623 610 L 632 610 L 633 611 L 638 610 L 641 611 L 650 610 Q 652 611 651 616 L 651 618 L 650 620 L 651 623 L 651 653 L 650 649 L 649 649 Q 648 655 651 657 Q 653 670 649 678 L 650 704 L 650 679 L 651 679 L 651 704 L 650 705 L 651 707 L 651 734 L 650 735 L 650 753 L 651 754 Q 652 757 649 756 Q 648 759 651 758 L 651 790 L 650 791 L 651 793 L 651 811 L 650 812 L 651 816 L 651 840 L 650 841 L 651 843 L 650 845 L 650 864 L 651 865 L 650 870 L 651 873 L 651 892 L 650 888 L 649 895 L 651 894 L 651 924 L 652 928 L 651 931 L 650 929 L 648 932 L 655 935 L 656 934 L 656 616 L 672 616 L 656 615 L 664 614 L 656 613 L 664 612 L 657 611 L 657 610 Q 663 608 665 611 Q 670 613 672 610 L 688 610 L 689 611 L 696 611 L 696 613 Q 699 614 698 610 L 728 610 Q 727 613 732 612 L 732 610 L 744 610 L 745 611 L 752 610 L 754 610 Q 761 609 760 612 L 765 610 L 769 611 L 771 610 Q 775 609 777 611 L 780 610 L 785 611 L 788 610 L 800 610 L 801 611 L 806 610 L 809 611 L 813 610 L 824 610 L 825 611 L 830 610 L 833 611 Q 837 612 839 610 L 856 610 L 857 611 Q 862 613 864 610 L 880 610 L 881 611 Q 887 612 891 610 Q 892 608 894 611 L 896 610 L 895 609 L 896 607 L 894 603 L 891 601 L 893 604 L 890 605 L 881 605 L 880 604 L 876 605 L 865 605 L 864 604 L 857 605 L 855 605 Q 849 607 848 604 L 843 605 L 840 604 L 838 605 L 825 605 L 823 605 L 809 605 L 808 604 L 804 605 L 793 605 L 784 603 L 768 604 L 781 604 L 781 605 L 769 605 L 768 604 L 765 605 L 753 605 L 752 604 L 747 605 L 737 605 L 736 604 L 731 605 Q 727 606 728 603 L 720 604 L 725 604 L 725 605 L 720 604 L 715 605 L 712 604 L 709 605 L 697 605 L 696 604 L 693 605 L 681 605 L 680 604 Q 675 603 674 605 Q 671 606 672 603 L 664 602 Q 663 606 671 604 L 671 605 L 656 604 L 660 603 L 656 602 L 656 515 L 655 514 L 655 493 L 656 492 L 655 490 L 655 436 L 656 435 L 655 433 L 655 409 L 655 407 L 656 405 L 655 403 L 655 382 L 656 381 L 655 379 L 656 377 L 656 361 L 656 359 L 655 356 L 655 354 L 655 328 L 656 327 L 655 325 L 656 322 L 656 320 L 656 304 L 655 303 L 656 301 L 655 299 L 656 297 L 655 296 L 655 288 L 657 288 L 660 287 L 665 288 L 669 287 L 673 288 L 676 287 L 681 288 L 683 287 Q 687 286 689 288 L 694 287 L 704 287 L 705 288 L 708 287 L 713 288 L 720 287 L 722 287 Q 727 286 729 288 L 733 287 L 737 288 L 742 287 L 745 288 L 749 287 L 753 288 L 757 287 L 761 288 L 763 287 Q 767 286 769 288 L 771 287 Q 775 286 777 288 L 781 287 L 785 288 L 788 287 L 793 288 L 797 287 L 807 288 L 809 288 L 811 287 L 824 287 L 825 288 L 829 287 L 833 288 L 836 287 L 841 288 L 843 287 Q 847 286 849 288 L 860 288 L 861 287 L 865 288 L 867 287 L 880 287 L 881 288 L 888 287 L 891 288 L 896 286 L 895 285 L 896 283 L 894 281 L 891 282 L 889 282 L 873 282 L 872 281 L 870 282 L 858 281 L 857 280 L 856 282 L 849 282 L 848 281 L 846 282 L 801 282 L 800 281 Q 793 279 792 282 L 753 282 L 752 281 L 739 281 L 738 282 L 697 282 L 696 281 L 692 282 L 688 281 L 683 282 L 665 282 L 664 281 L 660 282 L 655 282 L 659 281 L 655 280 L 656 271 L 656 269 L 655 267 L 656 265 L 655 264 L 655 247 L 655 245 L 656 242 L 655 240 L 655 224 L 656 222 L 656 220 L 655 217 L 655 188 L 656 187 L 655 186 L 655 169 L 655 167 L 656 165 L 655 163 L 656 161 L 655 160 L 655 137 L 655 135 L 656 113 L 656 111 L 655 109 L 656 107 L 655 104 L 654 72 L 654 70 L 655 68 Q 654 65 651 66 L 649 69 L 650 72 L 650 83 L 649 81 L 648 81 Q 647 85 650 87 L 650 104 L 648 108 Q 647 110 650 109 Q 651 112 649 111 L 649 112 L 650 113 L 650 161 L 648 162 L 650 166 L 649 169 L 649 186 L 650 187 Q 651 191 649 193 L 649 216 L 649 220 L 650 223 L 648 224 L 650 224 L 650 242 L 648 244 Q 647 246 650 245 Q 651 248 649 247 L 649 248 L 650 249 L 650 269 L 649 268 L 648 271 L 650 270 L 650 282 L 641 282 L 640 281 Q 633 279 632 282 L 617 282 L 616 281 L 612 282 L 585 282 L 584 281 L 579 282 L 529 282 L 528 281 Q 521 279 520 282 L 495 282 L 494 283 Q 489 284 488 282 L 473 283 L 471 283 L 457 283 L 456 282 L 454 283 Q 447 285 448 281 L 441 282 L 445 282 L 445 283 Q 439 285 440 281 L 423 281 L 421 283 L 416 282 L 412 283 Q 407 284 408 281 Q 405 280 404 283 L 400 282 L 395 283 L 392 282 Q 387 281 386 283 L 384 282 L 380 283 L 369 283 L 368 282 Q 362 281 361 283 L 359 280 L 360 271 L 360 269 L 359 267 L 360 265 L 359 264 L 359 247 L 359 245 L 360 242 L 359 240 L 359 224 L 360 222 L 360 220 L 359 217 L 359 188 L 360 187 L 359 186 L 359 169 L 359 167 L 360 165 L 359 163 L 360 161 L 359 160 L 359 137 L 359 135 L 360 113 L 360 111 L 359 109 L 360 107 L 359 104 L 358 72 L 358 70 L 359 68 Q 358 65 355 66 Z M 353 132 L 352 135 L 353 135 L 353 132 Z M 649 132 L 648 135 L 649 135 L 649 132 Z M 353 136 L 352 160 L 353 160 L 353 136 Z M 649 136 L 648 160 L 649 160 L 649 136 Z M 353 165 L 352 168 L 353 168 L 353 165 Z M 649 165 L 648 168 L 649 168 L 649 165 Z M 353 187 L 352 190 L 353 190 L 353 187 Z M 649 187 L 648 190 L 649 190 L 649 187 Z M 649 272 L 648 281 L 649 281 L 649 272 Z M 209 280 L 209 281 L 216 281 L 209 280 Z M 457 280 L 457 281 L 460 281 L 457 280 Z M 481 280 L 481 281 L 483 281 L 481 280 Z M 503 280 L 503 281 L 508 281 L 503 280 Z M 513 280 L 513 281 L 515 281 L 513 280 Z M 529 280 L 529 281 L 532 281 L 529 280 Z M 545 280 L 545 281 L 549 281 L 545 280 Z M 553 280 L 553 281 L 555 281 L 553 280 Z M 569 280 L 569 281 L 572 281 L 569 280 Z M 585 280 L 585 281 L 587 281 L 585 280 Z M 593 280 L 593 281 L 596 281 L 593 280 Z M 601 280 L 601 281 L 605 281 L 601 280 Z M 609 280 L 609 281 L 611 281 L 609 280 Z M 617 280 L 617 281 L 620 281 L 617 280 Z M 625 280 L 625 281 L 627 281 L 625 280 Z M 641 280 L 641 281 L 645 281 L 641 280 Z M 665 280 L 665 281 L 668 281 L 665 280 Z M 673 280 L 673 281 L 675 281 L 673 280 Z M 697 280 L 697 281 L 699 281 L 697 280 Z M 705 280 L 705 281 L 708 281 L 705 280 Z M 713 280 L 713 281 L 716 281 L 713 280 Z M 721 280 L 721 281 L 724 281 L 721 280 Z M 729 280 L 729 281 L 733 281 L 729 280 Z M 753 280 L 753 281 L 756 281 L 753 280 Z M 761 280 L 761 281 L 763 281 L 761 280 Z M 769 280 L 769 281 L 772 281 L 769 280 Z M 777 280 L 777 281 L 781 281 L 777 280 Z M 785 280 L 785 281 L 788 281 L 785 280 Z M 809 280 L 809 281 L 811 281 L 809 280 Z M 825 280 L 825 281 L 829 281 L 825 280 Z M 833 280 L 833 281 L 836 281 L 833 280 Z M 873 280 L 873 281 L 876 281 L 873 280 Z M 881 280 L 881 281 L 885 281 L 881 280 Z M 891 280 L 891 281 L 893 281 L 891 280 Z M 113 281 L 113 282 L 120 282 L 113 281 Z M 153 281 L 153 282 L 160 282 L 153 281 Z M 257 281 L 257 282 L 264 282 L 257 281 Z M 273 281 L 273 282 L 304 282 L 273 281 Z M 313 281 L 313 282 L 320 282 L 313 281 Z M 329 281 L 329 282 L 336 282 L 329 281 Z M 369 281 L 369 282 L 376 282 L 369 281 Z M 353 301 L 352 304 L 353 304 L 353 301 Z M 353 381 L 352 384 L 353 384 L 353 381 Z M 353 439 L 352 456 L 353 456 L 353 439 Z M 353 459 L 352 462 L 353 462 L 353 459 Z M 354 496 L 353 517 L 354 517 L 354 496 Z M 354 541 L 353 544 L 354 544 L 354 541 Z M 353 568 L 352 571 L 353 571 L 353 568 Z M 354 571 L 353 575 L 354 575 L 354 571 Z M 353 576 L 352 592 L 353 592 L 353 576 Z M 108 600 Q 106 603 109 602 L 108 600 Z M 257 600 L 257 601 L 260 601 L 257 600 Z M 281 600 L 281 601 L 288 601 L 281 600 Z M 313 600 L 313 601 L 320 601 L 313 600 Z M 329 600 L 329 601 L 344 601 L 329 600 Z M 670 600 L 670 601 L 672 601 L 670 600 Z M 693 600 L 693 601 L 696 601 L 693 600 Z M 718 600 L 718 601 L 720 601 L 718 600 Z M 798 600 L 798 601 L 800 601 L 798 600 Z M 804 600 L 804 601 L 808 601 L 804 600 Z M 814 600 L 814 601 L 816 601 L 814 600 Z M 837 600 L 837 601 L 840 601 L 837 600 Z M 861 600 L 861 601 L 864 601 L 861 600 Z M 869 600 L 869 601 L 872 601 L 869 600 Z M 153 601 L 153 602 L 160 602 L 153 601 Z M 169 601 L 169 602 L 176 602 L 169 601 Z M 193 601 L 193 602 L 200 602 L 193 601 Z M 225 601 L 225 602 L 232 602 L 225 601 Z M 249 601 L 249 602 L 256 602 L 249 601 Z M 297 601 L 297 602 L 304 602 L 297 601 Z M 321 601 L 321 602 L 328 602 L 321 601 Z M 672 601 L 672 603 L 676 602 L 672 601 Z M 681 601 L 681 602 L 685 602 L 681 601 Z M 697 601 L 697 602 L 705 602 L 697 601 Z M 721 601 L 721 602 L 723 602 L 721 601 Z M 753 601 L 753 602 L 759 602 L 753 601 Z M 825 601 L 825 602 L 832 602 L 825 601 Z M 849 601 L 849 602 L 855 602 L 849 601 Z M 873 601 L 873 602 L 875 602 L 873 601 Z M 881 601 L 881 602 L 883 602 L 881 601 Z M 105 602 L 105 603 L 107 603 L 105 602 Z M 110 602 L 109 605 L 111 605 L 110 602 Z M 121 602 L 121 603 L 128 603 L 121 602 Z M 209 602 L 209 603 L 216 603 L 209 602 Z M 233 602 L 233 603 L 240 603 L 233 602 Z M 257 602 L 257 603 L 264 603 L 257 602 Z M 281 602 L 281 603 L 296 603 L 281 602 Z M 318 602 L 318 603 L 320 603 L 318 602 Z M 337 602 L 337 603 L 344 603 L 337 602 Z M 689 602 L 689 603 L 693 603 L 689 602 Z M 713 602 L 713 603 L 720 603 L 713 602 Z M 729 602 L 729 603 L 732 603 L 729 602 Z M 736 602 L 736 604 L 738 603 L 736 602 Z M 761 602 L 761 603 L 763 603 L 761 602 Z M 785 602 L 785 603 L 795 603 L 785 602 Z M 809 602 L 808 604 L 816 604 L 809 602 Z M 817 602 L 817 603 L 822 603 L 817 602 Z M 833 602 Q 831 605 825 603 L 825 604 L 835 604 L 833 602 Z M 841 602 L 841 603 L 848 603 L 841 602 Z M 857 602 L 857 603 L 861 603 L 857 602 Z M 864 602 L 864 604 L 869 604 Q 868 601 864 602 Z M 117 603 L 117 604 L 120 604 L 117 603 Z M 142 603 L 142 604 L 144 604 L 142 603 Z M 169 603 L 169 604 L 176 604 L 169 603 Z M 223 603 L 223 604 L 232 604 L 223 603 Z M 249 603 L 249 604 L 256 604 L 249 603 Z M 273 603 L 273 604 L 280 604 L 273 603 Z M 697 603 L 697 604 L 704 604 L 697 603 Z M 753 603 L 753 604 L 760 604 L 753 603 Z M 881 603 L 881 604 L 888 604 L 881 603 Z M 125 604 L 125 605 L 128 605 L 125 604 Z M 134 604 L 134 605 L 136 605 L 134 604 Z M 145 604 L 145 605 L 152 605 L 145 604 Z M 155 604 L 155 605 L 160 605 L 155 604 Z M 181 604 L 181 605 L 184 605 L 181 604 Z M 201 604 L 201 605 L 208 605 L 201 604 Z M 259 604 L 259 605 L 264 605 L 259 604 Z M 281 604 L 281 605 L 288 605 L 281 604 Z M 314 604 L 314 605 L 320 605 L 314 604 Z M 326 604 L 326 605 L 328 605 L 326 604 Z M 337 604 L 337 605 L 344 605 L 337 604 Z M 349 604 L 349 605 L 352 605 L 349 604 Z M 545 611 L 545 612 L 552 612 L 545 611 Z M 569 611 L 569 612 L 576 612 L 569 611 Z M 593 611 L 593 612 L 595 612 L 593 611 Z M 601 611 L 601 612 L 608 612 L 601 611 Z M 625 611 L 625 612 L 632 612 L 625 611 Z M 673 611 L 673 612 L 675 612 L 673 611 Z M 681 611 L 681 612 L 687 612 L 681 611 Z M 713 611 L 713 612 L 720 612 L 713 611 Z M 737 611 L 737 612 L 742 612 L 737 611 Z M 793 611 L 793 612 L 800 612 L 793 611 Z M 817 611 L 817 612 L 820 612 L 817 611 Z M 841 611 L 841 612 L 846 612 L 841 611 Z M 849 611 L 849 612 L 856 612 L 849 611 Z M 865 611 L 865 612 L 867 612 L 865 611 Z M 873 611 L 873 612 L 876 612 L 873 611 Z M 113 612 L 113 613 L 120 613 L 113 612 Z M 132 612 Q 131 615 136 614 Q 137 610 132 612 Z M 166 612 L 167 614 L 176 613 L 166 612 Z M 185 612 L 185 613 L 191 613 L 192 614 L 192 612 L 185 612 Z M 241 612 L 241 613 L 248 613 L 241 612 Z M 264 612 L 262 614 L 264 614 L 264 612 Z M 297 612 L 297 613 L 304 613 L 297 612 Z M 369 612 L 369 613 L 376 613 L 369 612 Z M 385 612 L 385 613 L 391 613 L 392 614 L 392 612 L 385 612 Z M 409 612 L 409 613 L 416 613 L 409 612 Z M 484 612 L 484 613 L 488 613 L 484 612 Z M 497 612 L 497 613 L 504 614 L 504 612 L 497 612 Z M 553 612 L 553 613 L 558 613 L 553 612 Z M 577 612 L 577 613 L 586 613 L 577 612 Z M 609 612 L 609 613 L 613 613 L 609 612 Z M 633 612 L 633 613 L 640 613 L 633 612 Z M 721 612 L 721 613 L 728 613 L 721 612 Z M 745 612 L 745 613 L 752 613 L 745 612 Z M 769 612 L 769 613 L 778 613 L 769 612 Z M 825 612 L 825 613 L 832 613 L 825 612 Z M 857 612 L 857 613 L 859 613 L 857 612 Z M 881 612 L 881 613 L 884 613 L 881 612 Z M 140 613 L 140 614 L 144 614 L 140 613 Z M 153 613 L 153 614 L 160 614 L 153 613 Z M 179 613 L 179 614 L 184 614 L 179 613 Z M 206 613 L 206 614 L 216 614 L 206 613 Z M 238 613 L 238 614 L 240 614 L 238 613 Z M 269 613 L 269 614 L 272 614 L 269 613 Z M 281 613 L 281 614 L 288 614 L 281 613 Z M 308 613 L 308 614 L 312 614 L 308 613 Z M 326 613 L 324 615 L 328 615 Q 329 612 326 613 Z M 341 613 L 341 614 L 344 614 L 341 613 Z M 365 613 L 365 614 L 368 614 L 365 613 Z M 380 613 L 380 614 L 384 614 L 380 613 Z M 404 613 L 404 614 L 408 614 L 404 613 Z M 436 613 L 436 614 L 440 614 L 436 613 Z M 449 613 L 449 614 L 456 614 L 449 613 Z M 475 613 L 475 614 L 480 614 L 475 613 Z M 494 613 L 490 615 L 496 615 Q 497 612 494 613 Z M 513 613 L 513 614 L 520 614 L 513 613 Z M 537 613 L 537 614 L 544 614 L 537 613 Z M 601 613 L 601 614 L 604 614 L 601 613 Z M 617 613 L 617 614 L 624 614 L 617 613 Z M 641 613 L 641 614 L 649 614 L 649 616 L 650 616 L 650 613 L 641 613 Z M 681 613 L 681 614 L 683 614 L 681 613 Z M 705 613 L 705 614 L 720 614 L 705 613 Z M 737 613 L 737 614 L 744 614 L 737 613 Z M 761 613 L 761 614 L 768 614 L 761 613 Z M 785 613 L 785 614 L 792 614 L 785 613 Z M 873 613 L 873 614 L 880 614 L 873 613 Z M 894 613 L 894 614 L 896 614 L 894 613 Z M 118 614 L 118 615 L 120 615 L 118 614 Z M 126 614 L 126 615 L 128 615 L 126 614 Z M 146 614 L 146 615 L 152 615 L 146 614 Z M 169 614 L 169 615 L 176 615 L 169 614 Z M 242 614 L 242 615 L 248 615 L 242 614 Z M 278 614 L 278 615 L 280 615 L 278 614 Z M 296 614 L 296 615 L 304 615 L 296 614 Z M 316 614 L 316 615 L 320 615 L 316 614 Z M 345 614 L 345 615 L 352 615 L 345 614 Z M 369 614 L 369 615 L 376 615 L 369 614 Z M 408 614 L 408 616 L 416 615 L 408 614 Z M 446 614 L 446 615 L 448 615 L 446 614 Z M 465 614 L 465 615 L 472 615 L 465 614 Z M 485 614 L 485 615 L 488 615 L 485 614 Z M 505 614 L 505 615 L 512 615 L 505 614 Z M 521 614 L 521 615 L 528 615 L 521 614 Z M 673 614 L 673 615 L 680 615 L 673 614 Z M 697 614 L 697 615 L 704 615 L 697 614 Z M 745 614 L 745 615 L 752 615 L 745 614 Z M 769 614 L 769 615 L 776 615 L 769 614 Z M 801 614 L 801 615 L 808 615 L 801 614 Z M 825 614 L 825 615 L 832 615 L 825 614 Z M 841 614 L 841 615 L 848 615 L 841 614 Z M 892 614 L 893 616 Q 894 613 892 614 Z M 129 615 L 129 616 L 132 616 L 129 615 Z M 137 615 L 137 616 L 140 616 L 137 615 Z M 161 615 L 161 616 L 164 616 L 161 615 Z M 185 615 L 185 616 L 187 616 L 185 615 Z M 193 615 L 193 616 L 197 616 L 193 615 Z M 201 615 L 201 616 L 203 616 L 201 615 Z M 281 615 L 281 616 L 283 616 L 281 615 Z M 305 615 L 305 616 L 308 616 L 305 615 Z M 329 615 L 329 616 L 331 616 L 329 615 Z M 385 615 L 385 616 L 388 616 L 385 615 Z M 417 615 L 417 616 L 420 616 L 417 615 Z M 449 615 L 449 616 L 451 616 L 449 615 Z M 473 615 L 473 616 L 476 616 L 473 615 Z M 497 615 L 497 616 L 501 616 L 497 615 Z M 681 615 L 681 616 L 688 616 L 681 615 Z M 713 615 L 713 616 L 720 616 L 713 615 Z M 741 615 L 741 616 L 744 616 L 741 615 Z M 354 707 L 353 711 L 354 711 L 354 707 Z M 650 707 L 649 711 L 650 711 L 650 707 Z M 354 712 L 353 733 L 354 733 L 354 712 Z M 650 712 L 649 733 L 650 733 L 650 712 Z M 354 760 L 353 784 L 354 784 L 354 760 Z M 650 760 L 649 784 L 650 784 L 650 760 Z M 353 784 L 353 789 L 354 789 Q 355 785 353 784 Z M 649 784 L 649 789 L 650 789 Q 651 785 649 784 Z M 354 792 L 353 811 L 354 811 L 354 792 Z M 650 792 L 649 811 L 650 811 L 650 792 Z M 354 815 L 353 840 L 354 840 L 354 815 Z M 650 815 L 649 840 L 650 840 L 650 815 Z M 354 864 L 353 867 L 354 867 L 354 864 Z M 650 864 L 649 867 L 650 867 L 650 864 Z M 353 869 L 352 888 L 353 888 L 353 869 Z M 649 869 L 648 888 L 649 888 L 649 869 Z M 354 920 L 353 925 L 354 925 L 354 920 Z M 650 920 L 649 925 L 650 925 L 650 920 Z " /><path fill="rgb(255,255,255)" stroke="rgb(255,255,255)" stroke-width="1" opacity="1" d="M 424.5 282 L 429 282.5 L 424.5 283 L 424.5 282 Z " /><path fill="rgb(255,255,255)" stroke="rgb(255,255,255)" stroke-width="1" opacity="1" d="M 432.5 282 L 436 282.5 L 432.5 283 L 432.5 282 Z " /><path fill="rgb(255,255,255)" stroke="rgb(255,255,255)" stroke-width="1" opacity="1" d="M 501.5 287 L 507.5 288 L 511.5 287 L 514.5 288 L 519.5 287 L 523.5 288 L 527.5 287 L 529.5 287 L 537.5 288 Q 538.8 285.8 543.5 287 L 548.5 288 L 551.5 287 L 555.5 288 L 559.5 287 L 562.5 288 L 567.5 287 L 570.5 288 L 575.5 287 Q 576.7 289.2 581.5 288 L 582.5 287 L 591.5 287 L 593.5 287 L 602.5 288 L 607.5 287 L 610.5 288 L 615.5 287 L 619.5 288 L 623.5 287 L 626.5 288 L 631.5 287 L 635.5 288 L 639.5 287 L 642.5 288 Q 643.8 285.8 648.5 287 L 650 288.5 L 650 297 L 648 297.5 L 650 300.5 L 650 319.5 L 649 321.5 Q 651.3 322.8 650 327.5 L 649 328.5 L 649 351.5 L 648 352.5 Q 651.5 354 649 355.5 L 648 359.5 L 649 360.5 L 649 375.5 L 650 377.5 L 648 377.5 L 648 379 L 650 379.5 L 650 399.5 L 648 403.5 L 649 403.5 L 649.5 402 L 650 404.5 L 649 407.5 L 650 408.5 L 650 434.5 L 649 434.5 L 648.5 432 L 648 435.5 L 650 438.5 L 650 455.5 L 649 458.5 L 650 463.5 L 649 464.5 L 649 487.5 L 648 488.5 L 650 489 L 650 495.5 L 651 496.5 L 651 517.5 L 650 519.5 L 651 520.5 L 651 538.5 L 650 540.5 L 651 543.5 L 650 544.5 L 650 569.5 Q 652.2 570.8 651 575.5 L 650 576.5 L 650 591.5 L 651 594.5 L 650 594.5 L 649.5 592 L 649 595.5 L 651 602.5 L 650.5 605 L 648.5 605 L 637.5 604 L 636.5 605 L 624.5 605 L 620.5 604 L 619.5 605 L 608.5 605 Q 607.2 602.8 602.5 604 L 601.5 605 L 584.5 605 L 581.5 604 L 580.5 605 L 568.5 605 L 563.5 604 L 560 605 L 559.5 603 L 552.5 603 L 552.5 604 L 557 604.5 L 552.5 605 L 547.5 604 L 544.5 605 L 542.5 604 L 536 605 L 535.5 603 L 528.5 603 L 528.5 604 L 535 604.5 L 528.5 605 L 526.5 604 L 525.5 605 L 512.5 605 L 508.5 604 L 507.5 605 L 496.5 605 L 493.5 604 L 493.5 606 L 488.5 606 Q 489.5 603 484.5 604 L 484.5 606 L 472.5 606 L 472 604 L 480 603.5 L 467.5 603 L 467.5 604 L 470 604.5 L 464.5 606 L 461.5 605 L 460.5 606 L 448.5 606 L 446.5 606 Q 439.5 607.5 440 604.5 L 438.5 605 L 424.5 606 L 420.5 605 L 416.5 606 L 411.5 605 L 410.5 606 L 392.5 606 L 387.5 605 L 384.5 606 Q 383.2 603.8 378.5 605 L 377.5 606 L 368.5 606 L 363.5 605 L 360 606 L 360.5 604 L 367.5 604 L 367.5 603 L 360.5 603 L 360 602.5 L 360 514.5 L 359 513.5 L 359 492.5 L 360 490.5 L 359 489.5 L 359 435.5 L 360 433.5 L 359 432.5 L 359 408.5 L 359 406.5 L 360 403.5 L 359 402.5 L 359 381.5 L 360 379.5 L 359 377.5 L 360 376.5 L 360 360.5 L 359 357.5 L 360 354.5 L 359 353.5 L 359 327.5 L 360 325.5 L 359 323.5 L 360 321.5 L 360 319.5 L 360 303.5 L 359 301.5 L 360 299.5 L 359 297.5 L 359 295.5 L 359 288.5 L 359.5 288 L 500.5 288 L 501.5 287 Z M 649 288 L 648 296 L 649 296 L 649 288 Z M 649 301 L 648 304 L 649 304 L 649 301 Z M 649 381 L 648 384 L 649 384 L 649 381 Z M 649 439 L 648 456 L 649 456 L 649 439 Z M 649 459 L 648 462 L 649 462 L 649 459 Z M 650 496 L 649 517 L 650 517 L 650 496 Z M 650 541 L 649 544 L 650 544 L 650 541 Z M 649 568 L 648 571 L 649 571 L 649 568 Z M 650 571 L 649 575 L 650 575 L 650 571 Z M 649 576 L 648 592 L 649 592 L 649 576 Z M 500 600 L 500 601 L 504 601 L 500 600 Z M 525 600 L 525 601 L 528 601 L 525 600 Z M 550 600 L 550 601 L 552 601 L 550 600 Z M 581 600 L 581 601 L 584 601 L 581 600 Z M 591 600 L 584 602 L 592 602 Q 593 599 591 600 Z M 613 600 L 613 601 L 616 601 L 613 600 Z M 645 600 L 645 601 L 649 601 L 645 600 Z M 473 601 L 473 602 L 480 602 L 473 601 Z M 489 601 L 489 602 L 496 602 L 489 601 Z M 504 601 L 504 603 L 510 602 L 504 601 Z M 513 601 L 513 602 L 516 602 L 513 601 Z M 529 601 L 529 602 L 536 602 L 529 601 Z M 553 601 L 553 602 L 555 602 L 553 601 Z M 625 601 L 625 602 L 632 602 L 625 601 Z M 377 602 L 377 603 L 384 603 L 377 602 Z M 397 602 L 397 603 L 400 603 L 397 602 Z M 457 602 L 457 603 L 464 603 L 457 602 Z M 481 602 L 481 603 L 488 603 L 481 602 Z M 496 602 L 496 604 L 504 604 L 496 602 Z M 521 602 L 521 603 L 526 603 L 521 602 Z M 545 602 L 545 603 L 552 603 L 545 602 Z M 561 602 L 561 603 L 565 603 L 561 602 Z M 593 602 L 593 603 L 597 603 L 593 602 Z M 609 602 L 608 604 L 616 604 L 609 602 Z M 617 602 L 617 603 L 621 603 L 617 602 Z M 633 602 L 633 603 L 636 603 L 633 602 Z M 649 602 L 640 604 L 649 604 L 649 602 Z M 388 603 L 388 604 L 392 604 L 388 603 Z M 415 603 L 415 604 L 424 604 L 415 603 Z M 443 603 L 443 604 L 448 604 L 443 603 Z M 513 603 L 513 604 L 517 604 L 513 603 Z M 585 603 L 585 604 L 592 604 L 585 603 Z M 625 603 L 625 604 L 632 604 L 625 603 Z M 369 604 L 369 605 L 376 605 L 369 604 Z M 393 604 L 393 605 L 400 605 L 393 604 Z M 406 604 L 406 605 L 408 605 L 406 604 Z M 425 604 L 425 605 L 432 605 L 425 604 Z M 449 604 L 449 605 L 456 605 L 449 604 Z " /></svg>