<?xml version="1.0" encoding="UTF-8"?>
<svg xmlns="http://www.w3.org/2000/svg" xmlns:xlink="http://www.w3.org/1999/xlink" width="200px" height="200px" viewBox="0 0 200 200" version="1.1">
<g id="surface1">
<path style=" stroke:none;fill-rule:nonzero;fill:rgb(0%,0%,0%);fill-opacity:1;" d="M 189.71875 145.125 C 193.574219 145.125 196.703125 141.996094 196.703125 138.136719 C 196.703125 134.277344 193.574219 131.148438 189.71875 131.148438 L 145.472656 131.148438 L 145.472656 68.269531 L 189.71875 68.269531 C 193.574219 68.269531 196.703125 65.140625 196.703125 61.285156 C 196.703125 57.425781 193.574219 54.296875 189.71875 54.296875 L 145.472656 54.296875 L 145.472656 10.050781 C 145.472656 6.191406 142.34375 3.0625 138.484375 3.0625 C 134.625 3.0625 131.496094 6.191406 131.496094 10.050781 L 131.496094 54.296875 L 68.617188 54.296875 L 68.617188 10.046875 C 68.617188 6.1875 65.488281 3.058594 61.632812 3.058594 C 57.773438 3.058594 54.644531 6.1875 54.644531 10.046875 L 54.644531 54.296875 L 10.394531 54.296875 C 6.535156 54.296875 3.410156 57.425781 3.410156 61.285156 C 3.410156 65.140625 6.535156 68.269531 10.394531 68.269531 L 54.644531 68.269531 L 54.644531 131.148438 L 10.394531 131.148438 C 6.535156 131.148438 3.410156 134.277344 3.410156 138.136719 C 3.410156 141.996094 6.535156 145.125 10.394531 145.125 L 54.644531 145.125 L 54.644531 189.371094 C 54.644531 193.230469 57.773438 196.355469 61.632812 196.355469 C 65.488281 196.355469 68.617188 193.230469 68.617188 189.371094 L 68.617188 145.125 L 131.496094 145.125 L 131.496094 189.375 C 131.496094 193.230469 134.625 196.359375 138.484375 196.359375 C 142.34375 196.359375 145.472656 193.230469 145.472656 189.375 L 145.472656 145.125 Z M 68.617188 131.148438 L 68.617188 68.269531 L 131.496094 68.269531 L 131.496094 131.148438 Z M 68.617188 131.148438 "/>
<path style=" stroke:none;fill-rule:nonzero;fill:rgb(0%,0%,0%);fill-opacity:1;" d="M 12.128906 46.71875 L 23.203125 35.648438 L 34.273438 46.71875 C 35.636719 48.085938 37.421875 48.765625 39.210938 48.765625 C 41 48.765625 42.785156 48.085938 44.152344 46.71875 C 46.882812 43.996094 46.882812 39.570312 44.152344 36.839844 L 33.082031 25.765625 L 44.152344 14.691406 C 46.878906 11.964844 46.878906 7.539062 44.152344 4.8125 C 41.421875 2.085938 37 2.085938 34.273438 4.8125 L 23.203125 15.886719 L 12.128906 4.8125 C 9.402344 2.085938 4.980469 2.085938 2.25 4.8125 C -0.476562 7.539062 -0.476562 11.964844 2.25 14.691406 L 13.320312 25.765625 L 2.25 36.839844 C -0.476562 39.570312 -0.476562 43.996094 2.25 46.71875 C 3.617188 48.082031 5.402344 48.765625 7.191406 48.765625 C 8.980469 48.765625 10.765625 48.085938 12.128906 46.71875 Z M 12.128906 46.71875 "/>
<path style=" stroke:none;fill-rule:nonzero;fill:rgb(0%,0%,0%);fill-opacity:1;" d="M 109.9375 99.710938 L 121.007812 88.636719 C 123.734375 85.90625 123.734375 81.480469 121.007812 78.757812 C 118.277344 76.027344 113.855469 76.027344 111.125 78.757812 L 100.054688 89.832031 L 88.984375 78.757812 C 86.257812 76.027344 81.835938 76.027344 79.105469 78.757812 C 76.378906 81.484375 76.378906 85.90625 79.105469 88.636719 L 90.175781 99.710938 L 79.105469 110.785156 C 76.378906 113.511719 76.378906 117.9375 79.105469 120.664062 C 80.46875 122.027344 82.257812 122.710938 84.046875 122.710938 C 85.832031 122.710938 87.621094 122.027344 88.984375 120.664062 L 100.054688 109.589844 L 111.125 120.664062 C 112.492188 122.027344 114.277344 122.710938 116.066406 122.710938 C 117.855469 122.710938 119.640625 122.027344 121.007812 120.664062 C 123.734375 117.9375 123.734375 113.511719 121.007812 110.785156 Z M 109.9375 99.710938 "/>
<path style=" stroke:none;fill-rule:nonzero;fill:rgb(0%,0%,0%);fill-opacity:1;" d="M 100.054688 51.535156 C 114.261719 51.535156 125.820312 39.976562 125.820312 25.765625 C 125.820312 11.558594 114.261719 0 100.054688 0 C 85.84375 0 74.289062 11.558594 74.289062 25.765625 C 74.289062 39.976562 85.847656 51.535156 100.054688 51.535156 Z M 100.054688 13.972656 C 106.558594 13.972656 111.847656 19.265625 111.847656 25.765625 C 111.847656 32.269531 106.558594 37.558594 100.054688 37.558594 C 93.550781 37.558594 88.261719 32.269531 88.261719 25.765625 C 88.261719 19.265625 93.550781 13.972656 100.054688 13.972656 Z M 100.054688 13.972656 "/>
<path style=" stroke:none;fill-rule:nonzero;fill:rgb(0%,0%,0%);fill-opacity:1;" d="M 174.027344 148.464844 C 159.820312 148.464844 148.261719 160.023438 148.261719 174.234375 C 148.261719 188.441406 159.820312 200 174.027344 200 C 188.238281 200 199.796875 188.441406 199.796875 174.234375 C 199.796875 160.023438 188.238281 148.464844 174.027344 148.464844 Z M 174.027344 186.027344 C 167.527344 186.027344 162.234375 180.734375 162.234375 174.234375 C 162.234375 167.730469 167.527344 162.441406 174.027344 162.441406 C 180.53125 162.441406 185.820312 167.730469 185.820312 174.234375 C 185.820312 180.734375 180.53125 186.027344 174.027344 186.027344 Z M 174.027344 186.027344 "/>
</g>
</svg>
