<?xml version="1.0" encoding="UTF-8"?>
<svg xmlns="http://www.w3.org/2000/svg" xmlns:xlink="http://www.w3.org/1999/xlink" width="403px" height="403px" viewBox="0 0 403 403" version="1.1">
<g id="surface1">
<path style=" stroke:none;fill-rule:nonzero;fill:rgb(60.000002%,0%,0%);fill-opacity:1;" d="M 137.046875 391.882812 C 135.265625 387.90625 132.992188 373.746094 131.796875 359.171875 C 130.625 344.890625 130.207031 332.558594 129.9375 304.570312 C 129.707031 280.914062 129.324219 263.5 129.027344 263.144531 C 128.964844 263.074219 127.703125 262.933594 126.222656 262.839844 C 124.738281 262.742188 122.625 262.585938 121.519531 262.492188 C 120.414062 262.398438 118.539062 262.242188 117.351562 262.148438 C 114.019531 261.886719 104.625 261.117188 102.296875 260.917969 C 99.992188 260.722656 72.546875 258.230469 68.867188 257.886719 C 67.59375 257.765625 62.832031 257.261719 58.289062 256.769531 C 53.746094 256.277344 49.265625 255.796875 48.332031 255.703125 C 44 255.273438 37.542969 254.523438 37.285156 254.421875 C 37.160156 254.375 36.296875 254.25 35.359375 254.148438 C 33.03125 253.898438 29.195312 253.355469 27.332031 253.015625 C 26.484375 252.859375 25.09375 252.625 24.242188 252.492188 C 19.992188 251.824219 17.195312 251.097656 16.386719 250.449219 L 15.9375 250.085938 L 16.273438 249.78125 C 16.875 249.234375 18.792969 248.925781 24.320312 248.492188 C 35.632812 247.601562 63.484375 247.324219 96.351562 247.78125 C 107.730469 247.9375 117.25 248.101562 117.503906 248.140625 C 117.757812 248.183594 120.332031 248.238281 123.21875 248.261719 L 128.46875 248.300781 L 128.421875 246.921875 C 128.339844 244.375 127.015625 216.351562 126.007812 195.808594 C 125.457031 184.621094 124.824219 171.398438 124.601562 166.425781 C 124.378906 161.449219 124.171875 157.296875 124.144531 157.1875 C 124.109375 157.050781 116.535156 156.992188 96.402344 156.980469 C 64 156.960938 61.816406 156.933594 41.921875 156.25 C 34.347656 155.988281 28.058594 155.550781 24.320312 155.019531 C 19.242188 154.300781 17.394531 153.765625 16.460938 152.738281 C 15.820312 152.035156 15.867188 151.539062 16.71875 149.976562 C 17.886719 147.824219 17.890625 147.21875 16.75 145 C 16.40625 144.332031 16.085938 143.5 16.035156 143.152344 C 15.949219 142.570312 16.003906 142.449219 16.617188 141.765625 C 17.71875 140.546875 20.175781 139.757812 25.164062 139.023438 C 27.460938 138.683594 28.257812 138.601562 34.28125 138.09375 C 43.597656 137.308594 61.738281 136.785156 84.84375 136.636719 L 103.289062 136.515625 L 96.679688 130.167969 C 93.042969 126.679688 89.996094 123.792969 89.910156 123.757812 C 89.824219 123.722656 89.710938 123.765625 89.65625 123.859375 C 89.460938 124.183594 86.535156 126.136719 84.824219 127.085938 C 80.863281 129.28125 75.136719 131.039062 68.867188 131.988281 C 64.765625 132.609375 57.160156 132.753906 54.660156 132.257812 C 52.859375 131.898438 50.226562 131.089844 49.234375 130.589844 C 48.964844 130.453125 48.699219 130.34375 48.644531 130.34375 C 48.585938 130.34375 47.761719 129.90625 46.8125 129.367188 C 38.648438 124.757812 33.269531 115.324219 31.960938 103.320312 C 31.675781 100.710938 31.636719 95.125 31.886719 92.523438 C 32.570312 85.386719 34.46875 78.515625 37.457031 72.386719 C 38.054688 71.15625 38.523438 70.082031 38.496094 70 C 38.46875 69.917969 37.054688 68.222656 35.347656 66.234375 C 33.644531 64.246094 31.871094 62.140625 31.410156 61.558594 C 30.949219 60.976562 29.84375 59.605469 28.949219 58.515625 C 28.050781 57.421875 26.835938 55.90625 26.246094 55.140625 C 25.652344 54.378906 25.101562 53.664062 25.015625 53.558594 C 20.125 47.371094 14.402344 38.726562 11.324219 32.882812 C 9.574219 29.5625 9.226562 28.851562 7.96875 26.027344 C 5.0625 19.5 3.308594 13.039062 3.308594 8.875 C 3.308594 5.746094 3.859375 5.25 5.964844 6.476562 C 7.386719 7.304688 8.21875 7.417969 8.90625 6.871094 C 9.191406 6.648438 9.558594 6.265625 9.726562 6.023438 C 9.894531 5.78125 10.339844 5.210938 10.714844 4.757812 C 11.320312 4.019531 11.464844 3.933594 12.050781 3.933594 C 12.636719 3.933594 12.804688 4.035156 13.554688 4.84375 C 14.109375 5.449219 14.828125 6.582031 15.675781 8.191406 C 18.851562 14.226562 21.132812 18.152344 23.828125 22.214844 C 26.765625 26.640625 27.734375 27.980469 32.5625 34.328125 C 35.105469 37.675781 45.308594 49.542969 49.066406 53.527344 C 51.027344 55.609375 51.035156 55.613281 51.417969 55.332031 C 52.171875 54.777344 54.753906 53.316406 56.089844 52.691406 C 58.300781 51.65625 60.492188 50.925781 62.535156 50.535156 C 62.960938 50.457031 63.65625 50.296875 64.082031 50.183594 C 65.277344 49.859375 71.292969 49.910156 73.191406 50.261719 C 77.570312 51.0625 81.953125 52.953125 84.136719 54.984375 C 85.277344 56.042969 85.660156 56.726562 85.648438 57.683594 C 85.636719 58.5 85.476562 58.851562 84.460938 60.269531 C 83.359375 61.808594 83.203125 62.210938 82.921875 64.199219 C 82.777344 65.226562 82.527344 66.261719 82.296875 66.765625 L 81.910156 67.613281 L 83.113281 69.027344 C 88.171875 74.984375 92.078125 81.117188 94.75 87.308594 C 97.214844 93.023438 98.746094 99.410156 98.746094 103.996094 L 98.746094 105.273438 L 102.488281 108.886719 C 104.546875 110.875 106.269531 112.546875 106.308594 112.601562 C 106.390625 112.707031 109.332031 115.570312 110.015625 116.210938 C 110.226562 116.40625 113.210938 119.316406 116.644531 122.671875 C 120.078125 126.027344 122.914062 128.746094 122.941406 128.714844 C 122.96875 128.683594 122.921875 126.863281 122.835938 124.675781 C 122.75 122.484375 122.542969 116.3125 122.371094 110.957031 C 121.128906 71.453125 121.128906 50.902344 122.375 42.605469 C 123.03125 38.230469 123.925781 37.15625 126.023438 38.214844 C 127.257812 38.839844 127.828125 39.050781 128.296875 39.054688 C 128.886719 39.058594 129.917969 38.714844 130.398438 38.359375 C 131.023438 37.890625 132.0625 37.492188 132.644531 37.492188 C 133.507812 37.492188 134.398438 38.621094 134.988281 40.457031 C 137.832031 49.34375 139.621094 75.832031 141.398438 135.386719 L 141.4375 136.691406 L 166.21875 137.070312 C 197.214844 137.546875 217.84375 137.925781 225.433594 138.15625 C 239.660156 138.597656 247.171875 138.71875 247.28125 138.519531 C 247.34375 138.410156 247.4375 137.132812 247.496094 135.679688 C 248.0625 121.367188 250.375 84.914062 251.765625 68.355469 C 252.792969 56.089844 253.90625 48.710938 254.777344 48.332031 C 255.160156 48.167969 255.449219 48.601562 255.765625 49.8125 C 257.097656 54.921875 258.15625 69.828125 258.933594 94.351562 C 259.324219 106.671875 259.789062 128.894531 259.789062 135.328125 C 259.789062 137.160156 259.832031 138.785156 259.882812 138.9375 C 259.964844 139.175781 260.402344 139.210938 263.164062 139.214844 C 264.917969 139.21875 269.6875 139.335938 273.765625 139.476562 C 277.839844 139.617188 283.886719 139.8125 287.195312 139.90625 C 290.507812 140 297.527344 140.242188 302.792969 140.4375 C 321.40625 141.128906 327.511719 141.257812 327.34375 140.949219 C 327.289062 140.851562 326.816406 140.445312 326.292969 140.046875 C 325.765625 139.644531 325.265625 139.25 325.179688 139.167969 C 325.097656 139.089844 324.359375 138.460938 323.542969 137.769531 C 321.53125 136.066406 319.484375 134.296875 319.390625 134.175781 C 319.347656 134.125 318.273438 133.148438 316.996094 132.007812 C 315.722656 130.871094 314.570312 129.816406 314.429688 129.664062 C 314.292969 129.511719 314.050781 129.265625 313.890625 129.117188 C 313.730469 128.96875 312.210938 127.492188 310.511719 125.839844 C 308.8125 124.183594 307.339844 122.792969 307.242188 122.746094 C 307.140625 122.699219 305.609375 123.578125 303.84375 124.691406 C 300.433594 126.847656 293.308594 130.867188 292.902344 130.867188 C 292.855469 130.867188 292.453125 131.054688 292.011719 131.285156 C 291.574219 131.519531 290.621094 131.953125 289.898438 132.253906 C 289.175781 132.558594 288.449219 132.871094 288.277344 132.953125 C 288.109375 133.035156 287.308594 133.335938 286.503906 133.621094 C 279.308594 136.152344 272.605469 136.375 270.714844 134.144531 C 270.480469 133.867188 270.289062 133.53125 270.289062 133.398438 C 270.289062 132.757812 271.660156 131.542969 273.992188 130.113281 C 277.792969 127.78125 284.984375 122.242188 289.628906 118.066406 C 290.203125 117.550781 291.175781 116.679688 291.789062 116.128906 C 292.40625 115.578125 292.945312 115.085938 292.988281 115.03125 C 293.03125 114.976562 293.917969 114.164062 294.960938 113.226562 C 296.003906 112.285156 296.839844 111.457031 296.816406 111.386719 C 296.789062 111.3125 295.628906 109.898438 294.238281 108.238281 C 292.84375 106.578125 290.925781 104.199219 289.976562 102.957031 C 287.988281 100.355469 283.601562 94.175781 282.285156 92.117188 C 281.148438 90.339844 277.546875 84.261719 277.425781 83.917969 C 277.375 83.773438 277.113281 83.265625 276.847656 82.789062 C 276.578125 82.308594 275.832031 80.785156 275.191406 79.398438 C 271.019531 70.417969 269.398438 62.160156 271.351562 59.792969 C 271.949219 59.066406 272.460938 58.878906 274.617188 58.609375 C 276.101562 58.425781 276.839844 58.238281 277.710938 57.832031 C 281.476562 56.066406 282.453125 56.179688 284.574219 58.609375 C 285.894531 60.128906 286.601562 61.324219 290.597656 68.789062 C 294.300781 75.71875 297.320312 80.894531 301.292969 87.132812 C 302.695312 89.332031 304.0625 91.484375 304.332031 91.917969 C 304.734375 92.550781 309.136719 99.179688 309.273438 99.355469 C 309.3125 99.40625 313.300781 95.53125 313.601562 95.152344 C 313.6875 95.046875 314.242188 94.488281 314.835938 93.917969 C 315.429688 93.34375 315.984375 92.789062 316.070312 92.683594 C 316.15625 92.578125 317.441406 91.332031 318.925781 89.910156 C 320.414062 88.488281 321.734375 87.207031 321.863281 87.058594 C 321.988281 86.910156 322.511719 86.398438 323.019531 85.921875 C 323.527344 85.445312 323.980469 85.007812 324.023438 84.953125 C 324.140625 84.792969 329.265625 80.03125 331.511719 77.992188 C 339.253906 70.964844 345.300781 66.570312 349.070312 65.230469 C 350.171875 64.839844 350.632812 64.765625 351.582031 64.816406 C 352.671875 64.878906 352.777344 64.921875 353.289062 65.496094 C 353.652344 65.90625 354.0625 66.734375 354.519531 67.984375 C 355.253906 69.988281 355.398438 70.25 356.816406 72.265625 C 358.078125 74.0625 358.347656 74.800781 358.273438 76.265625 C 358.179688 78.160156 357.207031 79.742188 353.878906 83.417969 C 352.871094 84.53125 351.25 86.210938 350.273438 87.152344 C 349.296875 88.089844 348.460938 88.910156 348.417969 88.96875 C 348.375 89.027344 347.4375 89.890625 346.335938 90.882812 C 345.230469 91.878906 344.1875 92.820312 344.019531 92.984375 C 343.539062 93.4375 340.5625 96.089844 339.617188 96.910156 C 339.152344 97.3125 338.558594 97.851562 338.304688 98.105469 C 338.050781 98.363281 337.183594 99.125 336.375 99.796875 C 335.570312 100.472656 334.875 101.074219 334.832031 101.136719 C 334.789062 101.199219 333.851562 102 332.746094 102.921875 C 331.644531 103.839844 330.671875 104.660156 330.585938 104.738281 C 330.351562 104.957031 327.242188 107.507812 325.488281 108.914062 C 324.640625 109.597656 323.871094 110.230469 323.777344 110.320312 C 323.6875 110.410156 322.679688 111.199219 321.539062 112.074219 C 320.398438 112.953125 319.445312 113.738281 319.421875 113.820312 C 319.371094 113.976562 319.675781 114.449219 321.5625 117.128906 C 322.203125 118.039062 323.386719 119.757812 324.195312 120.953125 C 325 122.148438 326.21875 123.949219 326.898438 124.953125 C 330.648438 130.480469 334.417969 136.601562 336.023438 139.757812 L 336.765625 141.210938 L 344.097656 141.335938 C 348.128906 141.402344 353.375 141.542969 355.753906 141.648438 C 360.269531 141.851562 369.433594 142.558594 371.425781 142.859375 C 372.0625 142.957031 373.3125 143.117188 374.207031 143.214844 C 376.820312 143.496094 383.957031 144.863281 386.402344 145.550781 C 388.261719 146.070312 391.886719 147.261719 392.539062 147.570312 C 392.730469 147.660156 393.042969 147.800781 393.234375 147.890625 C 395.667969 148.992188 397.367188 150.109375 397.367188 150.601562 C 397.367188 150.730469 397.148438 150.886719 396.882812 150.953125 C 396.300781 151.097656 392.96875 150.925781 389.414062 150.570312 C 387.648438 150.390625 384.011719 150.277344 378.289062 150.214844 C 367.96875 150.105469 362.621094 150.332031 345.71875 151.582031 C 339.261719 152.058594 332.90625 152.519531 331.589844 152.605469 C 330.273438 152.695312 328.292969 152.851562 327.1875 152.957031 C 322.144531 153.4375 302.367188 154.148438 271.832031 154.941406 C 265.59375 155.105469 260.390625 155.269531 260.277344 155.308594 C 260.113281 155.367188 260.089844 156.109375 260.164062 159.25 C 260.21875 161.378906 260.328125 167.03125 260.414062 171.8125 C 260.820312 194.539062 261.453125 216.632812 262.1875 233.628906 C 262.535156 241.683594 263.042969 251.949219 263.105469 252.167969 C 263.144531 252.296875 264.257812 252.394531 266.53125 252.464844 C 273.691406 252.683594 307.835938 254.105469 308.890625 254.226562 C 309.359375 254.277344 312.035156 254.398438 314.835938 254.492188 C 317.636719 254.582031 321.425781 254.742188 323.25 254.84375 C 328.484375 255.132812 340.003906 255.730469 343.476562 255.890625 C 345.21875 255.972656 347.789062 256.121094 349.191406 256.222656 C 350.59375 256.324219 353.164062 256.488281 354.90625 256.585938 C 356.644531 256.683594 359.007812 256.835938 360.152344 256.929688 C 361.300781 257.023438 363.453125 257.183594 364.941406 257.292969 C 373.320312 257.890625 377.929688 258.289062 382.851562 258.84375 C 390.75 259.734375 394.355469 260.257812 395.898438 260.75 C 396.152344 260.828125 396.640625 260.945312 396.980469 261.007812 C 397.320312 261.066406 398.148438 261.320312 398.824219 261.570312 C 401.691406 262.625 401.964844 263.320312 400.53125 265.890625 C 399.449219 267.832031 399.4375 268.207031 400.378906 270.355469 C 401.1875 272.203125 401.253906 272.941406 400.679688 273.675781 C 398.398438 276.597656 382.886719 277.371094 347.878906 276.308594 C 334.996094 275.921875 325.066406 275.546875 320.472656 275.285156 C 319.582031 275.234375 316.800781 275.109375 314.296875 275.007812 C 311.789062 274.910156 308.628906 274.75 307.269531 274.65625 C 305.910156 274.558594 302.921875 274.40625 300.628906 274.3125 C 295.429688 274.097656 284.074219 273.519531 280.480469 273.289062 C 278.996094 273.191406 276.074219 273.03125 273.996094 272.929688 C 271.914062 272.828125 269.484375 272.703125 268.589844 272.652344 L 266.96875 272.554688 L 267.355469 272.925781 C 267.570312 273.132812 268.089844 273.671875 268.515625 274.125 C 268.9375 274.578125 273.378906 279.089844 278.378906 284.152344 C 283.378906 289.214844 287.625 293.511719 287.8125 293.703125 C 289.574219 295.488281 292.511719 298.476562 293.574219 299.5625 L 294.882812 300.902344 L 295.84375 299.984375 C 298.441406 297.5 302.230469 294.984375 305.417969 293.625 C 305.925781 293.40625 306.460938 293.160156 306.609375 293.078125 C 306.753906 292.996094 307.136719 292.851562 307.457031 292.761719 C 307.777344 292.671875 308.667969 292.402344 309.433594 292.167969 C 310.195312 291.933594 311.792969 291.566406 312.984375 291.355469 C 314.898438 291.015625 315.550781 290.980469 318.695312 291.058594 C 321.835938 291.132812 322.535156 291.203125 324.71875 291.675781 C 327.375 292.253906 327.839844 292.382812 329.503906 293.015625 C 332.097656 293.996094 334.761719 295.425781 336.050781 296.523438 C 337.570312 297.820312 338.074219 298.570312 338.074219 299.53125 C 338.074219 300.253906 337.886719 300.628906 336.84375 301.964844 C 336.355469 302.585938 335.84375 303.34375 335.703125 303.652344 C 335.355469 304.410156 335.046875 307.753906 335.3125 307.855469 C 335.421875 307.894531 336.691406 308.605469 338.140625 309.4375 C 340.363281 310.714844 341.738281 311.585938 343.707031 312.964844 C 345.171875 313.988281 349.636719 317.972656 351.164062 319.617188 C 354.042969 322.714844 355.675781 325.128906 357.378906 328.8125 C 362.234375 339.304688 361.230469 350.628906 354.5625 360.59375 C 354.070312 361.332031 353.667969 362 353.667969 362.082031 C 353.667969 362.164062 354.902344 363.558594 356.40625 365.179688 C 362.054688 371.261719 369.933594 380.316406 372.042969 383.144531 C 373.601562 385.238281 373.957031 386.269531 373.015625 385.960938 C 372.113281 385.667969 367.554688 382.480469 366.097656 381.125 C 366.015625 381.046875 365.703125 380.796875 365.402344 380.566406 C 365.105469 380.339844 364.378906 379.746094 363.78125 379.25 C 363.1875 378.757812 362.007812 377.773438 361.15625 377.066406 C 360.308594 376.359375 357.367188 373.839844 354.625 371.464844 C 351.878906 369.09375 349.550781 367.113281 349.453125 367.070312 C 349.351562 367.027344 349.023438 367.234375 348.726562 367.527344 C 348.039062 368.203125 345.710938 370.179688 344.40625 371.191406 C 340.117188 374.519531 333.363281 377.914062 326.339844 380.269531 C 319.339844 382.617188 309.679688 384.203125 302.097656 384.25 C 299.339844 384.265625 298.390625 384.210938 297.488281 383.976562 C 292.425781 382.671875 288.625 379.832031 285.347656 374.90625 C 282.027344 369.921875 280.210938 364.652344 279.109375 356.824219 C 278.566406 352.960938 278.425781 350.222656 278.519531 345.269531 C 278.636719 339.0625 279.113281 335.070312 280.488281 328.890625 C 281.757812 323.1875 284.410156 316.03125 286.832031 311.789062 L 287.425781 310.746094 L 286.769531 310.0625 C 286.410156 309.691406 285.457031 308.792969 284.648438 308.070312 C 283.84375 307.347656 282.941406 306.507812 282.640625 306.203125 C 282.34375 305.898438 281.71875 305.3125 281.253906 304.902344 C 280.785156 304.492188 280.328125 304.070312 280.230469 303.972656 C 279.6875 303.390625 265.746094 290.5 265.710938 290.542969 C 265.679688 290.585938 266.011719 294.386719 266.664062 301.441406 C 268.09375 316.820312 269.691406 329.980469 273.007812 353.691406 C 275.78125 373.53125 275.894531 374.515625 275.910156 379.078125 C 275.925781 382.371094 275.90625 382.597656 275.578125 383.292969 C 275.164062 384.164062 274.640625 384.382812 273.464844 384.171875 C 271.398438 383.804688 270.683594 383.804688 270.050781 384.171875 C 269.714844 384.367188 269.300781 384.671875 269.132812 384.851562 C 268.503906 385.511719 267.417969 386.269531 266.949219 386.378906 C 266.335938 386.519531 265.4375 386.113281 264.925781 385.46875 C 261.378906 381.003906 256.777344 363.519531 253.085938 340.476562 C 250.148438 322.15625 247.785156 299.199219 246.574219 277.273438 L 246.308594 272.492188 L 245.855469 271.945312 C 245.519531 271.542969 245.21875 271.375 244.683594 271.292969 C 243.867188 271.171875 232.699219 270.417969 227.671875 270.144531 C 223.726562 269.929688 214.882812 269.363281 211.304688 269.09375 C 209.90625 268.992188 200.804688 268.351562 191.078125 267.675781 C 170.402344 266.238281 169.621094 266.179688 153.097656 264.941406 C 147.878906 264.550781 143.597656 264.230469 143.582031 264.230469 C 143.554688 264.230469 143.519531 265.128906 143.128906 275.882812 C 142.84375 283.789062 142.324219 294.871094 141.4375 312.050781 C 139.816406 343.46875 139.515625 351.515625 139.121094 373.777344 C 138.992188 380.902344 138.816406 387.707031 138.730469 388.902344 C 138.433594 392.972656 137.933594 393.855469 137.046875 391.882812 Z M 314.21875 365.003906 C 317.652344 364.585938 318.460938 364.449219 321.785156 363.707031 C 323.515625 363.320312 325.753906 362.722656 326.339844 362.488281 C 326.550781 362.402344 327.351562 362.125 328.113281 361.867188 C 328.878906 361.613281 329.644531 361.335938 329.8125 361.25 C 329.984375 361.160156 330.46875 360.964844 330.894531 360.808594 C 332.886719 360.082031 337.996094 357.300781 337.996094 356.941406 C 337.996094 356.847656 336.121094 355.105469 333.828125 353.066406 C 330.285156 349.917969 329.027344 348.785156 326.570312 346.507812 C 326.128906 346.101562 322.347656 342.707031 321.722656 342.15625 C 321.433594 341.902344 321.085938 341.574219 320.949219 341.421875 C 320.816406 341.273438 319.660156 340.21875 318.386719 339.082031 C 317.113281 337.941406 316.035156 336.964844 315.992188 336.910156 C 315.953125 336.855469 315.222656 336.191406 314.371094 335.433594 C 313.523438 334.679688 312.65625 333.878906 312.441406 333.652344 C 312.230469 333.429688 311.675781 332.921875 311.207031 332.523438 C 310.742188 332.125 309.941406 331.402344 309.433594 330.917969 C 308.921875 330.433594 308.15625 329.726562 307.734375 329.347656 C 307.308594 328.964844 306.824219 328.523438 306.652344 328.363281 C 305.628906 327.390625 301.746094 323.871094 301.699219 323.871094 C 301.664062 323.871094 301.324219 324.574219 300.941406 325.433594 C 298.707031 330.441406 297.25 336.226562 296.507812 343 C 296.21875 345.625 296.265625 351.800781 296.59375 354.390625 C 297.085938 358.277344 297.789062 360.894531 298.960938 363.171875 C 299.503906 364.222656 300.457031 365.34375 300.9375 365.496094 C 301.109375 365.546875 303.367188 365.554688 305.957031 365.511719 C 309.511719 365.453125 311.539062 365.328125 314.21875 365.003906 Z M 344.71875 350.867188 C 346.980469 347.988281 348.332031 344.597656 348.644531 340.996094 C 348.84375 338.730469 348.25 335.433594 347.152344 332.683594 C 346.519531 331.097656 345.195312 328.625 344.421875 327.589844 C 344.199219 327.292969 343.742188 326.664062 343.402344 326.199219 C 341.875 324.09375 338.652344 320.597656 336.082031 318.261719 C 334.847656 317.132812 329.617188 313.0625 327.882812 311.878906 C 326.738281 311.097656 325.609375 310.304688 325.378906 310.121094 C 325.011719 309.828125 324.679688 309.789062 322.671875 309.789062 C 317.851562 309.789062 314.070312 310.789062 310.652344 312.96875 C 309.460938 313.726562 308.332031 314.652344 308.429688 314.792969 C 308.46875 314.855469 311.457031 317.957031 315.066406 321.6875 C 318.675781 325.417969 324.296875 331.25 327.558594 334.648438 C 330.820312 338.046875 333.945312 341.292969 334.507812 341.867188 C 335.066406 342.4375 336.289062 343.730469 337.226562 344.738281 C 340.59375 348.375 343.804688 351.679688 343.96875 351.6875 C 344.023438 351.691406 344.363281 351.320312 344.71875 350.867188 Z M 223.265625 250.703125 C 223.183594 250.625 222.632812 250.09375 222.039062 249.523438 C 221.445312 248.949219 220.367188 247.941406 219.644531 247.28125 C 218.921875 246.621094 218.296875 246.03125 218.253906 245.972656 C 218.164062 245.847656 215.734375 243.546875 213.3125 241.296875 C 211.851562 239.941406 210.816406 238.957031 210.625 238.75 C 210.53125 238.648438 208.582031 236.820312 206.289062 234.683594 C 203.996094 232.546875 201.675781 230.363281 201.136719 229.824219 C 200.59375 229.285156 199.917969 228.660156 199.632812 228.429688 L 199.109375 228.011719 L 197.917969 228.828125 C 196.546875 229.773438 193.058594 231.773438 191.929688 232.261719 C 191.503906 232.445312 190.984375 232.679688 190.769531 232.789062 C 189.933594 233.203125 189.710938 233.296875 188.144531 233.867188 C 184.339844 235.257812 180.871094 235.890625 177.0625 235.890625 C 173.75 235.890625 171.417969 235.476562 168.535156 234.371094 C 160.089844 231.144531 154.265625 223.117188 152.855469 212.761719 C 152.351562 209.058594 152.59375 203.394531 153.410156 199.785156 C 153.96875 197.328125 155.101562 193.949219 156.273438 191.261719 C 156.902344 189.8125 157.417969 188.546875 157.417969 188.457031 C 157.417969 188.363281 157.261719 188.167969 157.070312 188.027344 C 156.878906 187.886719 156.550781 187.578125 156.339844 187.347656 C 156.125 187.113281 155.082031 186.109375 154.023438 185.113281 C 151.757812 182.996094 148.109375 179.515625 148 179.371094 C 147.957031 179.3125 147.070312 178.472656 146.03125 177.503906 C 144.992188 176.53125 143.890625 175.480469 143.585938 175.167969 C 143.28125 174.851562 142.921875 174.527344 142.789062 174.441406 C 142.523438 174.273438 142.515625 173.046875 142.90625 190.855469 C 143.242188 206.113281 143.378906 215.894531 143.472656 231.933594 L 143.570312 248.757812 L 146.828125 248.761719 C 148.621094 248.761719 155.710938 248.921875 162.589844 249.109375 C 169.46875 249.300781 178.261719 249.53125 182.125 249.621094 C 185.988281 249.707031 191.652344 249.867188 194.707031 249.96875 C 217.128906 250.738281 223.472656 250.898438 223.265625 250.703125 Z M 245.320312 245.234375 C 245.132812 236.832031 245.191406 201.113281 245.402344 192.59375 C 245.710938 180.367188 246.15625 166.425781 246.496094 158.511719 C 246.558594 157.03125 246.566406 155.757812 246.515625 155.6875 C 246.421875 155.5625 219.023438 156.027344 218.910156 156.152344 C 218.878906 156.1875 219.433594 156.945312 220.140625 157.839844 C 224.03125 162.773438 228.214844 169.492188 230.277344 174.109375 C 233.269531 180.816406 234.015625 187.777344 232.367188 193.664062 C 231.03125 198.4375 227.960938 203.46875 223.582031 208.066406 C 222.902344 208.777344 222.3125 209.402344 222.269531 209.453125 C 222.226562 209.503906 221.878906 209.832031 221.496094 210.179688 C 221.117188 210.527344 220.628906 210.980469 220.417969 211.1875 C 220.203125 211.398438 219.871094 211.722656 219.675781 211.910156 C 219.238281 212.332031 213.515625 217.269531 213.039062 217.632812 C 212.707031 217.886719 212.757812 217.949219 215.285156 220.445312 C 216.707031 221.851562 218.113281 223.25 218.410156 223.554688 C 219.410156 224.582031 221.570312 226.757812 222.269531 227.441406 C 222.917969 228.074219 224.679688 229.859375 226.507812 231.730469 C 226.9375 232.167969 227.523438 232.757812 227.8125 233.035156 C 228.105469 233.3125 228.523438 233.738281 228.746094 233.976562 C 228.96875 234.214844 229.738281 234.988281 230.457031 235.695312 C 231.175781 236.402344 232.148438 237.382812 232.613281 237.871094 C 233.082031 238.363281 233.742188 239.023438 234.082031 239.34375 C 234.421875 239.664062 235.082031 240.332031 235.546875 240.828125 C 236.015625 241.324219 237.265625 242.582031 238.328125 243.625 C 239.390625 244.667969 240.367188 245.640625 240.503906 245.792969 C 240.953125 246.277344 242.089844 247.429688 243.34375 248.667969 C 244.023438 249.339844 244.703125 250.0625 244.859375 250.277344 C 245.015625 250.492188 245.210938 250.667969 245.292969 250.667969 C 245.386719 250.667969 245.394531 248.679688 245.320312 245.234375 Z M 180.734375 217.277344 C 182.507812 217.066406 186.136719 216.015625 186.136719 215.714844 C 186.136719 215.601562 185.914062 215.375 184.59375 214.15625 C 184.125 213.726562 183.710938 213.332031 183.667969 213.28125 C 183.625 213.226562 182.964844 212.601562 182.199219 211.894531 C 181.4375 211.183594 180.777344 210.558594 180.734375 210.5 C 180.3125 209.925781 171.703125 202 171.617188 202.105469 C 171.363281 202.410156 170.679688 204.882812 170.464844 206.28125 C 169.875 210.078125 170.558594 213.351562 172.320312 215.179688 C 173.109375 216 175.054688 217.101562 175.746094 217.121094 C 175.984375 217.128906 176.316406 217.203125 176.488281 217.285156 C 176.914062 217.488281 178.972656 217.488281 180.734375 217.277344 Z M 204.390625 205.273438 C 207.109375 203.542969 208.449219 202.605469 212.007812 199.953125 C 217.792969 195.632812 221.140625 191.914062 222.230469 188.59375 C 222.683594 187.214844 222.9375 185.070312 222.816406 183.640625 C 222.390625 178.585938 220.914062 174.214844 215.152344 160.964844 L 213.082031 156.203125 L 205.671875 156.324219 C 191.878906 156.546875 170.507812 156.765625 162.28125 156.769531 C 153.527344 156.777344 151.339844 156.863281 151.75 157.199219 C 151.878906 157.308594 152.367188 157.785156 152.828125 158.261719 C 153.832031 159.292969 154.371094 159.828125 155.796875 161.207031 C 156.386719 161.78125 156.976562 162.378906 157.105469 162.53125 C 157.234375 162.6875 159.863281 165.296875 162.941406 168.332031 C 168.789062 174.097656 168.613281 173.953125 169.152344 173.285156 C 169.265625 173.148438 172.5625 170.457031 172.875 170.25 C 173.019531 170.152344 174.273438 169.269531 175.660156 168.28125 C 179.375 165.640625 183.410156 163.527344 187.140625 162.269531 C 187.90625 162.011719 188.738281 161.730469 188.996094 161.644531 C 189.566406 161.449219 191.792969 160.953125 192.933594 160.761719 C 193.398438 160.683594 194.199219 160.535156 194.707031 160.433594 C 195.21875 160.328125 197.371094 160.167969 199.496094 160.074219 C 207.800781 159.714844 214.378906 160.945312 215.417969 163.058594 C 215.726562 163.6875 215.664062 164.898438 215.242188 166.386719 C 214.757812 168.085938 214.761719 168.585938 215.261719 170.648438 C 215.550781 171.847656 215.644531 172.582031 215.59375 173.273438 C 215.527344 174.144531 215.460938 174.296875 214.828125 174.9375 C 213.6875 176.101562 211.710938 176.839844 207.523438 177.664062 C 206.503906 177.867188 205.359375 178.09375 204.976562 178.167969 C 204.59375 178.242188 203.34375 178.46875 202.195312 178.671875 C 201.050781 178.871094 199.902344 179.109375 199.648438 179.195312 C 199.394531 179.28125 198.875 179.40625 198.492188 179.46875 C 197.140625 179.691406 194.375 180.578125 192.015625 181.550781 C 189.964844 182.394531 185.105469 185.488281 182.957031 187.316406 L 182.515625 187.691406 L 182.898438 188.101562 C 183.109375 188.328125 183.804688 189.023438 184.441406 189.640625 C 185.078125 190.261719 185.632812 190.808594 185.675781 190.855469 C 185.71875 190.902344 186.308594 191.488281 186.988281 192.15625 C 187.667969 192.820312 188.609375 193.757812 189.078125 194.238281 C 190.453125 195.648438 191.238281 196.433594 192.46875 197.636719 C 193.105469 198.257812 193.660156 198.804688 193.703125 198.851562 C 193.789062 198.945312 194.621094 199.785156 196.546875 201.722656 C 200.242188 205.433594 201.671875 206.828125 201.789062 206.839844 C 201.863281 206.84375 203.03125 206.140625 204.390625 205.273438 Z M 69.808594 114.519531 C 72.480469 114.285156 75.304688 113.8125 76.511719 113.390625 C 76.890625 113.257812 77.515625 113.058594 77.898438 112.945312 L 78.59375 112.746094 L 77.976562 112.144531 C 77.636719 111.8125 76.769531 110.984375 76.046875 110.296875 C 75.324219 109.613281 74.457031 108.765625 74.117188 108.414062 C 73.53125 107.8125 72.777344 107.113281 70.257812 104.824219 C 69.664062 104.285156 69.140625 103.800781 69.097656 103.75 C 69.054688 103.695312 68.394531 103.070312 67.632812 102.359375 C 66.867188 101.648438 63.0625 97.503906 59.171875 93.144531 C 53.585938 86.882812 52.074219 85.277344 51.960938 85.484375 C 51.621094 86.089844 50.398438 90.613281 50.003906 92.699219 C 49.613281 94.785156 49.578125 95.269531 49.574219 98.957031 C 49.570312 103.292969 49.722656 104.472656 50.660156 107.253906 C 51.347656 109.285156 52.863281 111.574219 54.199219 112.589844 C 55.335938 113.453125 57.453125 114.308594 58.90625 114.484375 C 60.722656 114.710938 67.402344 114.730469 69.808594 114.519531 Z M 84.613281 90.1875 C 83.078125 85.226562 80.304688 79.070312 76.179688 71.464844 L 74.65625 68.660156 L 73.265625 68.726562 C 69.691406 68.890625 69.082031 68.957031 67.707031 69.304688 C 66.902344 69.507812 66.121094 69.75 65.972656 69.839844 C 65.828125 69.933594 65.640625 70.007812 65.558594 70.007812 C 65.480469 70.007812 65.222656 70.089844 64.988281 70.191406 C 64.5625 70.371094 64.613281 70.429688 70.574219 77.160156 C 73.882812 80.894531 77.113281 84.46875 77.757812 85.105469 C 79.511719 86.839844 80.609375 87.886719 81.601562 88.773438 C 83.527344 90.496094 84.773438 91.660156 84.824219 91.785156 C 84.851562 91.855469 84.933594 91.917969 85.011719 91.917969 C 85.085938 91.917969 84.90625 91.136719 84.613281 90.1875 Z M 166.144531 376.46875 C 165.378906 376.34375 164.300781 376.121094 163.75 375.972656 C 162.507812 375.636719 159.867188 374.53125 159.039062 374 C 158.699219 373.785156 158.25 373.511719 158.035156 373.394531 C 157.03125 372.84375 154.515625 370.511719 152.632812 368.386719 C 146.394531 361.347656 143.210938 352.886719 143.214844 343.382812 C 143.21875 333.878906 146.21875 324.726562 152.230469 315.875 C 153.488281 314.023438 154.136719 313.195312 156.492188 310.425781 C 162.492188 303.375 171.714844 297.25 179.960938 294.84375 C 180.257812 294.757812 180.882812 294.566406 181.351562 294.425781 C 181.820312 294.28125 182.546875 294.113281 182.972656 294.054688 C 183.398438 293.996094 183.953125 293.875 184.207031 293.785156 C 184.949219 293.527344 189.605469 293.097656 191.542969 293.109375 C 192.519531 293.113281 194.160156 293.214844 195.191406 293.332031 L 197.0625 293.542969 L 196.300781 292.175781 C 195.066406 289.957031 194.972656 289.265625 195.914062 289.273438 C 196.78125 289.285156 199.292969 290.707031 200.882812 292.089844 C 201.890625 292.964844 203.933594 294.929688 204.351562 295.421875 C 204.644531 295.769531 204.957031 296.054688 205.042969 296.054688 C 205.28125 296.058594 207.203125 297.078125 208.449219 297.859375 C 210.191406 298.953125 211.929688 300.445312 213.164062 301.90625 C 215.105469 304.199219 215.285156 305.261719 213.992188 306.71875 L 213.289062 307.507812 L 213.699219 308.257812 C 213.921875 308.667969 214.320312 309.398438 214.582031 309.875 C 215.5 311.558594 217.296875 315.636719 218.0625 317.785156 C 220.15625 323.640625 220.941406 328.027344 220.945312 333.871094 C 220.949219 337.429688 220.769531 338.976562 220.027344 341.871094 C 218.523438 347.738281 215.65625 352.402344 210.84375 356.816406 C 210.121094 357.480469 209.21875 358.308594 208.835938 358.660156 C 206.925781 360.421875 201.777344 364.242188 198.414062 366.398438 C 195.796875 368.074219 190.265625 371.054688 187.296875 372.390625 C 185.410156 373.238281 181.726562 374.632812 180.347656 375.019531 C 177.777344 375.738281 177.1875 375.867188 174.503906 376.292969 C 171.414062 376.785156 168.5 376.847656 166.144531 376.46875 Z M 175.328125 358.230469 C 178.089844 357.761719 183.613281 355.992188 186.214844 354.746094 C 186.554688 354.582031 187.144531 354.328125 187.527344 354.183594 C 187.910156 354.035156 188.5 353.777344 188.839844 353.605469 C 189.179688 353.433594 189.910156 353.082031 190.460938 352.824219 C 191.527344 352.328125 195.988281 349.875 197.023438 349.214844 C 199.039062 347.933594 199.652344 347.523438 201.117188 346.5 C 202.007812 345.875 202.804688 345.300781 202.890625 345.222656 C 202.976562 345.144531 203.636719 344.582031 204.359375 343.972656 C 206.460938 342.195312 207.703125 340.5 208.683594 338.070312 C 210.769531 332.886719 210.445312 324.992188 207.800781 316.488281 C 207.117188 314.304688 207.480469 314.574219 204.433594 313.964844 C 203.417969 313.757812 201.957031 313.445312 201.191406 313.269531 C 198.652344 312.683594 196.664062 312.515625 193.519531 312.621094 C 191.652344 312.683594 190.136719 312.828125 189.457031 313 C 188.863281 313.15625 187.996094 313.359375 187.527344 313.457031 C 186.585938 313.65625 186.453125 313.699219 184.097656 314.5625 C 181.828125 315.398438 179.902344 316.359375 177.878906 317.671875 C 176.644531 318.46875 173.429688 320.824219 173.132812 321.148438 C 173.023438 321.265625 172.519531 321.726562 172.011719 322.171875 C 170.890625 323.152344 169.089844 325.09375 167.785156 326.722656 C 164.308594 331.066406 161.820312 336.347656 161.035156 341.046875 C 160.691406 343.097656 160.804688 346.742188 161.261719 348.476562 C 161.964844 351.148438 163.414062 353.761719 165.582031 356.269531 C 166.941406 357.84375 167.601562 358.199219 169.847656 358.546875 C 170.648438 358.675781 173.800781 358.492188 175.328125 358.230469 Z M 27.414062 346.664062 C 27.183594 346.175781 27.21875 344.859375 27.496094 343.632812 C 28.007812 341.394531 29.738281 337.984375 32.144531 334.488281 C 33.410156 332.644531 36.488281 328.949219 38.457031 326.914062 C 39.378906 325.960938 40.277344 325.015625 40.449219 324.820312 C 40.625 324.625 41.5625 323.71875 42.539062 322.808594 C 43.515625 321.898438 44.421875 321.039062 44.546875 320.898438 C 45.125 320.257812 53.679688 312.953125 54.378906 312.5 C 54.394531 312.488281 53.992188 311.972656 53.484375 311.351562 C 50.636719 307.851562 47.890625 303.453125 46.25 299.757812 C 44.957031 296.835938 44.203125 294.433594 43.679688 291.542969 C 43.339844 289.671875 43.292969 289.042969 43.355469 287.183594 C 43.445312 284.453125 43.710938 283.445312 44.628906 282.371094 L 45.308594 281.570312 L 47.667969 281.707031 C 50.519531 281.875 49.980469 281.875 52.964844 281.714844 C 55.285156 281.589844 55.488281 281.605469 56.324219 281.960938 C 57.566406 282.492188 58.574219 283.703125 60.066406 286.460938 C 61.738281 289.554688 64 293.425781 65.058594 295.007812 C 66.480469 297.136719 69.75 301.441406 69.941406 301.441406 C 69.972656 301.441406 70.613281 301.042969 71.363281 300.554688 C 72.113281 300.066406 73.527344 299.1875 74.503906 298.605469 C 75.480469 298.023438 76.554688 297.371094 76.894531 297.15625 C 77.816406 296.574219 85.542969 292.226562 85.65625 292.226562 C 85.746094 292.226562 87.011719 291.582031 89.25 290.402344 C 91.082031 289.433594 99.632812 285.640625 100.828125 285.265625 C 101.082031 285.183594 102.277344 284.769531 103.480469 284.34375 C 104.6875 283.917969 105.972656 283.511719 106.339844 283.441406 C 106.707031 283.375 107.117188 283.253906 107.253906 283.171875 C 107.527344 283.011719 110.875 282.3125 113.492188 281.867188 C 116.292969 281.394531 119.675781 281.761719 121.160156 282.699219 C 122.328125 283.4375 122.601562 284.371094 122.273438 286.460938 C 121.976562 288.347656 121.976562 289.925781 122.273438 292.09375 C 122.710938 295.257812 122.210938 296.734375 120.210938 298.207031 C 118.777344 299.257812 117.769531 299.777344 113.410156 301.695312 C 111.753906 302.421875 110.195312 303.125 109.9375 303.253906 C 109.683594 303.386719 108.398438 303.933594 107.082031 304.46875 C 105.765625 305.007812 104.550781 305.515625 104.378906 305.597656 C 104.210938 305.679688 103.621094 305.945312 103.066406 306.183594 C 102.515625 306.425781 100.1875 307.460938 97.894531 308.484375 C 94.082031 310.191406 92.894531 310.738281 92.027344 311.183594 C 91.859375 311.273438 91.335938 311.507812 90.871094 311.707031 C 88.929688 312.535156 82.679688 315.59375 82.71875 315.691406 C 82.746094 315.75 84.222656 317.316406 86.007812 319.171875 C 87.789062 321.027344 91.09375 324.625 93.34375 327.164062 C 98.167969 332.605469 99.203125 333.859375 101.152344 336.652344 C 104.5 341.449219 106.003906 345.226562 105.128906 346.636719 C 104.886719 347.027344 104.8125 347.042969 103.625 346.941406 C 102.296875 346.832031 101.71875 346.621094 98.898438 345.222656 C 97.140625 344.347656 88.492188 339.460938 88.136719 339.140625 C 88.035156 339.046875 87.722656 338.835938 87.441406 338.667969 C 86.109375 337.878906 80.273438 334.21875 80.136719 334.085938 C 80.054688 334.007812 78.855469 333.179688 77.472656 332.253906 C 75.210938 330.734375 70.0625 327.066406 69.871094 326.835938 C 69.78125 326.726562 69.148438 326.222656 67.53125 324.964844 C 66.878906 324.460938 66.246094 324.046875 66.121094 324.046875 C 65.992188 324.046875 62.253906 326.078125 57.804688 328.5625 C 50.9375 332.402344 48.707031 333.691406 44.269531 336.398438 C 43.992188 336.570312 43.679688 336.785156 43.574219 336.875 C 43.472656 336.960938 43.007812 337.257812 42.539062 337.53125 C 40.640625 338.636719 31.566406 344.859375 31.269531 345.257812 C 31.148438 345.421875 29.707031 346.351562 29.050781 346.691406 C 28.257812 347.101562 27.617188 347.089844 27.414062 346.664062 Z M 85.019531 242.308594 C 84.679688 242.15625 83.492188 241.117188 82.746094 240.324219 C 80.824219 238.265625 78.980469 236.457031 77.515625 235.183594 C 76.917969 234.667969 76.398438 234.203125 76.355469 234.148438 C 76.191406 233.949219 74.925781 232.871094 73.695312 231.890625 C 72.992188 231.328125 72.328125 230.78125 72.21875 230.671875 C 71.980469 230.433594 59.855469 221.457031 59.769531 221.457031 C 59.738281 221.457031 58.609375 220.621094 57.261719 219.601562 C 55.917969 218.582031 54.398438 217.433594 53.890625 217.046875 C 53.378906 216.664062 52.324219 215.816406 51.546875 215.164062 C 50.765625 214.511719 50.082031 213.980469 50.027344 213.980469 C 49.878906 213.980469 39.984375 218.914062 37.832031 220.058594 C 36.8125 220.601562 35.734375 221.160156 35.4375 221.296875 C 35.140625 221.433594 32.429688 222.925781 29.417969 224.613281 C 24.832031 227.179688 22.316406 228.714844 16.636719 232.425781 C 16.363281 232.605469 15.214844 233.449219 14.089844 234.296875 C 11.71875 236.082031 10.640625 236.757812 10.164062 236.757812 C 9.394531 236.757812 9.128906 235.335938 9.554688 233.53125 C 10.167969 230.945312 11.8125 227.855469 14.742188 223.804688 C 14.949219 223.519531 16.304688 221.953125 17.75 220.324219 C 20.566406 217.160156 23.207031 214.601562 27.339844 211.023438 C 28.835938 209.730469 34.222656 205.472656 36.355469 203.898438 L 38.351562 202.425781 L 37.46875 201.378906 C 34.625 198.015625 31.105469 191.921875 29.632812 187.8125 C 28.234375 183.90625 27.65625 180.8125 27.738281 177.691406 C 27.789062 175.824219 27.835938 175.546875 28.257812 174.605469 C 29.007812 172.929688 29.125 172.878906 32.398438 172.738281 C 34.097656 172.664062 35.601562 172.507812 36.210938 172.339844 C 36.761719 172.183594 37.816406 172.015625 38.554688 171.960938 C 40.117188 171.84375 40.761719 172.097656 42.011719 173.339844 C 42.609375 173.933594 45.011719 177.726562 45.011719 178.078125 C 45.011719 178.269531 48.519531 184.183594 49.34375 185.378906 C 50.519531 187.089844 53.21875 190.667969 53.785156 191.269531 L 54.257812 191.769531 L 55.152344 191.191406 C 55.648438 190.875 56.328125 190.445312 56.667969 190.238281 C 57.007812 190.027344 58.46875 189.128906 59.910156 188.238281 C 61.355469 187.351562 63.648438 185.96875 65.007812 185.171875 C 67.769531 183.546875 83.347656 174.777344 85.246094 173.777344 C 85.917969 173.425781 87.199219 172.75 88.089844 172.277344 C 88.980469 171.808594 90.269531 171.132812 90.945312 170.773438 C 94.160156 169.078125 99.261719 166.761719 100.984375 166.214844 C 105.324219 164.832031 106.496094 165.28125 107.675781 168.757812 C 108.234375 170.394531 108.875 171.5625 110.0625 173.089844 C 111.1875 174.539062 111.484375 175.234375 111.476562 176.421875 C 111.464844 178.703125 109.363281 181.28125 104.339844 185.171875 C 103.640625 185.714844 103.039062 186.160156 102.996094 186.160156 C 102.957031 186.160156 102.382812 186.539062 101.722656 187.003906 C 98.757812 189.082031 96.441406 190.4375 87.214844 195.480469 C 83.941406 197.265625 68.066406 205.21875 67.125 205.539062 C 66.8125 205.648438 67.28125 206.222656 71.546875 210.992188 C 76.484375 216.515625 78.261719 218.734375 80.828125 222.585938 C 83.8125 227.0625 85.574219 230.757812 86.625 234.757812 C 87.121094 236.652344 87.324219 239.933594 87.011719 241.035156 C 86.640625 242.332031 85.992188 242.746094 85.019531 242.308594 Z M 292.445312 235.472656 C 288.503906 234.765625 285.507812 233.089844 282.949219 230.15625 C 281.007812 227.929688 279.609375 224.925781 278.984375 221.632812 C 278.558594 219.375 278.605469 214.96875 279.085938 212.761719 C 280.378906 206.773438 283.15625 200.503906 286.902344 195.097656 C 288.445312 192.875 288.605469 192.675781 291.445312 189.460938 C 294.359375 186.160156 294.597656 185.921875 297.46875 183.441406 C 298.929688 182.175781 302.578125 179.378906 302.761719 179.378906 C 302.804688 179.378906 303.296875 179.0625 303.859375 178.679688 C 305.140625 177.804688 308.925781 175.730469 310.359375 175.117188 C 312.65625 174.140625 314.023438 173.671875 317.246094 172.753906 C 318.738281 172.332031 322.035156 171.875 324.253906 171.785156 C 328.273438 171.621094 331.546875 172.074219 335.566406 173.351562 C 338.476562 174.273438 341.925781 176.496094 343.40625 178.394531 C 344.804688 180.1875 344.703125 181.195312 342.910156 183.386719 C 342.289062 184.148438 341.78125 184.867188 341.78125 184.988281 C 341.78125 185.105469 341.988281 185.308594 342.246094 185.4375 C 342.914062 185.769531 344.351562 187.296875 344.792969 188.144531 C 346.042969 190.550781 346.207031 193.832031 345.238281 197.113281 C 344.160156 200.757812 341.597656 205.53125 338.707031 209.277344 C 336.738281 211.824219 333.738281 215.140625 331.21875 217.542969 C 330.714844 218.023438 330.230469 218.496094 330.136719 218.59375 C 330.042969 218.691406 329.515625 219.160156 328.964844 219.632812 C 327.808594 220.625 327.804688 220.625 327.1875 221.203125 C 326.386719 221.949219 321.390625 225.691406 319.777344 226.753906 C 318.925781 227.308594 317.988281 227.9375 317.691406 228.148438 C 317.199219 228.496094 312.609375 231.058594 311.128906 231.808594 C 310.171875 232.296875 306.925781 233.613281 305.726562 234 C 304.542969 234.382812 304.136719 234.496094 302.40625 234.917969 C 301.769531 235.074219 300.902344 235.289062 300.476562 235.394531 C 299.300781 235.683594 293.90625 235.738281 292.445312 235.472656 Z M 300.691406 218.132812 C 302.703125 217.753906 304.667969 217.269531 305.957031 216.828125 C 307.539062 216.292969 311.222656 214.855469 311.4375 214.691406 C 311.523438 214.628906 311.871094 214.46875 312.210938 214.34375 C 312.550781 214.214844 313.210938 213.917969 313.679688 213.675781 C 314.144531 213.4375 315.046875 212.988281 315.683594 212.679688 C 317.554688 211.769531 322.765625 208.640625 325.335938 206.878906 C 326.78125 205.886719 330.546875 203.101562 331.042969 202.648438 C 331.703125 202.054688 332.546875 201.316406 332.90625 201.027344 C 334.183594 199.988281 336.503906 197.507812 338.035156 195.550781 C 339.6875 193.433594 340.511719 191.476562 340.308594 190.136719 L 340.203125 189.429688 L 339.742188 190.058594 C 338.84375 191.289062 338.796875 191.296875 332.824219 191.230469 L 327.496094 191.175781 L 324.753906 191.714844 C 321.726562 192.316406 320.777344 192.601562 318.078125 193.71875 C 316.457031 194.390625 312.875 196.417969 311.128906 197.648438 C 304.097656 202.613281 298.035156 209.898438 295.949219 215.894531 C 295.242188 217.929688 295.222656 218.117188 295.726562 218.203125 C 296.648438 218.359375 299.722656 218.316406 300.691406 218.132812 Z M 206.109375 128.753906 C 202.3125 128.148438 193.738281 123.527344 186.523438 118.1875 C 182.144531 114.949219 176.925781 110.742188 174.898438 108.820312 L 174.078125 108.042969 L 173.042969 108.527344 C 171.015625 109.472656 162.394531 114.164062 160.277344 115.472656 C 155.28125 118.554688 154.34375 118.671875 154.207031 116.226562 C 153.996094 112.503906 156.925781 107.03125 162.375 100.957031 L 164.480469 98.609375 L 161.625 95.308594 C 158.761719 91.992188 155.277344 87.453125 153.050781 84.140625 C 149.390625 78.691406 146.539062 72.464844 146.21875 69.222656 C 145.980469 66.800781 146.652344 65.839844 149.492188 64.554688 C 150.839844 63.945312 151.816406 63.351562 153.011719 62.414062 C 154.898438 60.929688 155.554688 60.617188 156.796875 60.617188 C 158.480469 60.617188 160.308594 62.046875 162.90625 65.398438 C 164.011719 66.824219 170.757812 76.207031 171.859375 77.851562 C 172.027344 78.101562 172.714844 79.039062 173.382812 79.9375 C 174.054688 80.835938 174.851562 81.917969 175.160156 82.34375 C 176.167969 83.742188 178.425781 86.699219 178.484375 86.699219 C 178.515625 86.699219 179.402344 86.078125 180.449219 85.316406 C 184.707031 82.226562 194.054688 76.042969 197.828125 73.824219 C 198.828125 73.234375 200.308594 72.355469 201.117188 71.875 C 210.015625 66.574219 213.460938 65.167969 215.363281 66.070312 C 216.082031 66.40625 216.992188 67.601562 217.90625 69.40625 C 218.347656 70.273438 219.179688 71.597656 219.753906 72.347656 C 222.054688 75.34375 222.273438 75.757812 222.261719 77.113281 C 222.242188 79.683594 220.015625 82.566406 215.242188 86.210938 C 212.40625 88.378906 206.195312 92.160156 201.578125 94.535156 C 200.515625 95.078125 198.953125 95.894531 198.105469 96.34375 C 197.253906 96.792969 194.996094 97.90625 193.085938 98.820312 C 191.175781 99.730469 189.558594 100.53125 189.492188 100.601562 C 189.425781 100.667969 190.050781 101.550781 190.882812 102.558594 C 191.710938 103.5625 193.636719 105.890625 195.160156 107.730469 C 200.300781 113.933594 203.902344 118.519531 205.753906 121.214844 C 206.214844 121.882812 206.632812 122.472656 206.679688 122.519531 C 206.910156 122.738281 207.765625 124.285156 208.269531 125.386719 C 209.03125 127.058594 209.117188 127.730469 208.65625 128.300781 C 208.222656 128.832031 207.464844 128.96875 206.109375 128.753906 Z M 206.109375 128.753906 "/>
</g>
</svg>
